<svg xmlns="http://www.w3.org/2000/svg" xmlns:xlink="http://www.w3.org/1999/xlink" width="150" height="39" viewBox="0 0 150 39">
    <defs>
        <path id="a" d="M40.5.65H0v36.183h40.5z"/>
    </defs>
    <g fill="none" fill-rule="evenodd">
        <path fill="#2D2D2D" d="M144.856 20.8c1.072 0 1.288-.216 1.288-.216v-.434c0-.866-.643-2.816-3.002-2.816-1.926 0-2.998 1.516-3.214 3.466h4.928zm-4.712 2.384c0 2.383 1.498 3.9 4.498 3.9 1.071 0 2.357-.217 3.645-.65 0 0 .212 0 .212.216v2.384c0 .216 0 .216-.212.433-1.071.65-2.574.867-4.502.867-5.357 0-7.5-3.684-7.5-7.584 0-4.333 2.571-7.8 7.073-7.8 4.498 0 6.213 3.467 6.213 6.284 0 1.3-.213 1.95-.213 1.95h-9.214zM126 17.767c-.855 0-1.714.217-2.355.433v8.884c.429.216 1.072.216 1.712.216 2.143 0 4.717-1.733 4.717-5.2-.217-2.816-1.931-4.333-4.074-4.333zm-2.786-9.317c.215 0 .215 0 .215.217V15.6c1.071-.433 2.143-.65 3.214-.65 4.071 0 6.645 3.034 6.645 6.934 0 5.2-4.074 8.45-8.788 8.45-1.498 0-2.998-.217-4.5-.65-.212 0-.212-.217-.212-.217v-20.8c0-.217 0-.217.212-.217h3.214zm-17.355 13.867c0 3.033 1.284 4.983 3.641 4.983 1.929 0 3.43-1.3 3.43-4.983 0-2.817-1.07-4.983-3.644-4.983-1.929.216-3.427 1.95-3.427 4.983zm10.927 0c0 4.767-3 7.8-7.286 7.8-5.14 0-7.283-3.9-7.283-7.583 0-4.55 2.997-7.584 7.5-7.584 4.497-.216 7.069 3.25 7.069 7.367zm-21.857-4.333c-.429-.217-1.072-.217-1.715-.217-2.783 0-4.497 1.733-4.497 4.767C88.716 26 90.642 27.3 93 27.3c.643 0 1.498-.216 2.143-.216v-9.1h-.216zm-9.855 4.55c0-4.334 3.214-7.8 8.355-7.8.645 0 1.288 0 1.716.216v-6.5c0-.216 0-.216.212-.216h3.215c.214 0 .214 0 .214.216v19.717c0 .217 0 .217-.214.217-1.929.866-4.072 1.516-5.998 1.516-4.502.217-7.5-2.166-7.5-7.366zm-8.36-1.3c-.642-1.95-2.142-6.067-2.571-8.234-.429 1.95-1.714 5.417-2.571 8.234h5.142zm-6 3.033l-1.928 5.417c0 .216-.214.216-.214.216h-3c-.215 0-.215 0-.215-.216 1.715-4.55 4.286-12.35 6.215-17.55 0-.217.214-.65.214-1.734 0-.216 0-.216.214-.216h4.072c.214-.217.214 0 .214 0 2.143 6.283 4.714 13 6.857 19.283 0 .217 0 .217-.212.217H79.5c-.215 0-.215 0-.215-.217l-1.929-5.417h-6.643v.217z"/>
        <g transform="translate(0 1.517)">
            <mask id="b" fill="#fff">
                <use xlink:href="#a"/>
            </mask>
            <path fill="#F00" d="M13.714 29.466h6.857l3 7.367h6.214l-9.642-22.967-6.429 15.6zM0 .65v36.183L15 .65H0zm25.5 0l15 36.183V.65h-15z" mask="url(#b)"/>
        </g>
    </g>
</svg>
