<svg xmlns="http://www.w3.org/2000/svg" xmlns:xlink="http://www.w3.org/1999/xlink" width="176" height="68" viewBox="0 0 176 68">
    <defs>
        <path id="a" d="M.513.186h13.235V17H.513z"/>
    </defs>
    <g fill="none" fill-rule="evenodd">
        <path fill="#E03A3E" d="M0 50.854v2.75h4.863v13.293h3.301V53.604h4.687v-2.75zM32.607 50.854v6.029h-6.36v-6.03h-3.301v16.044h3.301v-7.263h6.36v7.263h3.302V50.854zM47.392 50.854v16.043h11.993v-2.752h-8.692v-4.136h7.682v-2.752h-7.682v-3.653h8.32v-2.75zM74.81 50.854l-5.59 16.043h3.368l1.122-3.214h5.943l1.1 3.214h3.367l-5.502-16.043H74.81zm1.914 3.85l2.137 6.228h-4.118l1.98-6.227zM93.16 50.854v2.75h4.865v13.293h3.299V53.604h4.689v-2.75zM124.14 53.604h-4.467v4.204h4.512c.769 0 2.156-.815 1.958-2.398 0-1.146-.527-1.806-2.003-1.806zm1.827 13.293a3.645 3.645 0 0 1-.44-1.496c-.044-.793 0-2.068 0-3.236 0-1.079-.837-1.606-1.981-1.606h-3.873v6.338h-3.302V50.854h8.915c1.605 0 3.212.813 3.696 2.552.197.705.55 1.848.155 3.236-.397 1.386-1.101 1.891-2.18 2.531.55.373 1.607.77 1.783 2.222.088.66.154 2.772.154 3.586.022.903.265 1.101.615 1.321v.595h-3.542zM140.553 66.897V50.854h11.62v2.75h-8.318v3.653h7.68v2.751h-7.68v4.137h8.693v2.752z"/>
        <g transform="translate(162 50.404)">
            <mask id="b" fill="#fff">
                <use xlink:href="#a"/>
            </mask>
            <path fill="#E03A3E" d="M10.108 5.336c.045-1.299-1.033-2.486-3.3-2.53-1.607-.024-2.796.526-2.906 1.846-.088 1.101.286 1.322 1.013 1.607.374.397 3.412.88 4.027.99.88.155 2.773.551 3.784 1.586 1.851 1.936.991 5.742-1.01 7.043-1.366.88-3.237 1.1-5.018 1.121-.815.023-2.75-.264-3.94-1.12-1.43-1.036-2.134-2.62-2.245-4.14h3.213c0 .42.132 1.08.682 1.673.727.747 1.915.968 3.015.925 1.101-.022 2.134-.353 2.554-.748.703-.66.86-1.916.066-2.708-1.056-1.1-4.225-1.1-6.295-1.804C2.01 8.482.58 7.23.843 4.63 1.11 2.08 2.957.186 6.874.186c.858 0 3.851.065 5.413 2.046.837 1.078 1.056 2.576.925 3.104h-3.104z" mask="url(#b)"/>
        </g>
        <path fill="#E03A3E" d="M172.014 39.974c.495 0 1.264.082 1.264-.637 0-.545-.48-.61-.916-.61h-1.008v1.247h.66zm1.65 1.963h-.51l-1.007-1.626h-.793v1.626h-.43v-3.525h1.535c.298 0 .595.018.86.174.262.15.395.463.395.76 0 .693-.486.95-1.114.965l1.064 1.626zm1.198-1.766a2.766 2.766 0 0 0-2.766-2.764 2.767 2.767 0 0 0-2.773 2.764 2.77 2.77 0 0 0 5.539 0zm-5.926 0a3.151 3.151 0 0 1 3.16-3.144 3.144 3.144 0 0 1 3.146 3.144 3.146 3.146 0 0 1-3.146 3.16 3.153 3.153 0 0 1-3.16-3.16zM92.922 7.456c7.98-6.758 16.352-6.62 23.47-3.112 6.62 3.49 8.993 8.511 9.095 15.836l-.004 17.982s-.064 5.072-5.265 5.072c-4.943 0-5.176-5.04-5.176-5.04l-.07-17.765s-.3-8.253-8.553-8.253c-8.296 0-8.955 8.21-8.955 8.21v17.487s0 5.295-5.253 5.295c-5.13 0-5.235-5.295-5.235-5.295l-.004-17.435s-.154-8.262-8.924-8.262c-8.726 0-8.502 8.382-8.502 8.382v17.934s-.611 4.72-5.21 4.72c-4.771 0-5.253-4.763-5.253-4.763l-.035-18.097c0-6.672 1.29-13.292 10.782-17.04 4.312-1.704 9.37-1.668 13.909-.636 3.027 1.1 5.64 2.58 8.185 4.78l.48.421.518-.42zM42.284 38.053c0-5.2-5.159-5.218-5.159-5.218H18.538c-1.1 0-1.229-.843-.962-1.823 2.27-5.64 7.304-11.956 12.69-14.709 4.452-2.279 9.56-4.643 14.855-4.299 1.104.087 1.104.601 1.11 2.338v23.46s.265 5.324 5.424 5.324c5.308 0 4.886-5.15 4.886-5.15l-.02-29.453c.07-1.788-.258-3.508-1.324-4.883-.79-.723-1.857-1.48-3.06-1.651-6.328-.516-12.407.056-18.227 1.754C23.113 6.889 12.795 15.657 7.5 26.095c-1.804 3.553-3.473 8.218-3.543 12.517.07 2.063.93 4.47 3.285 4.47l29.97.155s5.072.19 5.072-5.184M166.22 25.285c5.247.547 4.592 5.468 4.592 5.468-2.834 8.909-11.173 14.35-21.02 14.35-12.177 0-22.05-9.873-22.05-22.051 0-12.18 9.873-22.052 22.05-22.052 9.89 0 18.258 4.825 21.056 13.79 0 0 1.335 5.397-4.471 6.07-4.297 0-4.958-3.503-4.958-3.503-1.661-4.81-6.23-6.581-11.604-6.581-6.781 0-12.276 5.496-12.276 12.276 0 6.779 5.495 12.274 12.276 12.274 5.307 0 9.829-2.358 11.542-7.077 0 0 1.052-3.048 4.864-2.964"/>
    </g>
</svg>
