<svg xmlns="http://www.w3.org/2000/svg" width="534" height="68" viewBox="0 0 534 68">
    <defs>
        <linearGradient id="a" x1="99.685%" x2="39.844%" y1="15.814%" y2="97.439%">
            <stop offset="0%" stop-color="#0052CC"/>
            <stop offset="92.3%" stop-color="#2684FF"/>
        </linearGradient>
    </defs>
    <g fill="none" fill-rule="nonzero">
        <path fill="url(#a)" d="M20.354 31.115a1.856 1.856 0 0 0-3.157.343L1.2 63.442a1.912 1.912 0 0 0 1.71 2.767h22.275c.729.017 1.4-.397 1.71-1.057 4.805-9.929 1.893-25.026-6.541-34.037z"/>
        <path fill="#2684FF" d="M32.087 2.024a42.188 42.188 0 0 0-2.463 41.65l10.739 21.478a1.912 1.912 0 0 0 1.71 1.057h22.271a1.912 1.912 0 0 0 1.71-2.767S36.092 3.511 35.339 2.012a1.806 1.806 0 0 0-3.252.012z"/>
        <path fill="#0052CC" d="M293.314 27.669c0 7.92 3.674 14.208 18.045 16.984 8.574 1.8 10.37 3.184 10.37 6.042 0 2.776-1.8 4.573-7.839 4.573a44.236 44.236 0 0 1-20.821-5.634v12.9c4.328 2.123 10.043 4.491 20.658 4.491 15.024 0 20.985-6.7 20.985-16.657m0 0c0-9.39-4.981-13.8-19.025-16.82-7.757-1.715-9.635-3.429-9.635-5.879 0-3.1 2.776-4.409 7.92-4.409 6.206 0 12.33 1.878 18.127 4.491v-12.33a40.97 40.97 0 0 0-17.719-3.674c-13.881 0-21.066 6.042-21.066 15.922M486.332 12.563v53.646h11.431V25.301l4.818 10.859 16.167 30.049h14.371V12.563h-11.431v34.621L517.36 37.14l-12.983-24.577zM401.133 12.563h12.493v53.646h-12.493zM386.718 50.368c0-9.39-4.981-13.8-19.025-16.82-7.757-1.715-9.635-3.429-9.635-5.879 0-3.1 2.776-4.409 7.92-4.409 6.206 0 12.33 1.878 18.127 4.491v-12.33a40.97 40.97 0 0 0-17.719-3.674c-13.881 0-21.066 6.042-21.066 15.922 0 7.92 3.674 14.208 18.045 16.984 8.574 1.8 10.37 3.184 10.37 6.042 0 2.776-1.8 4.573-7.839 4.573a44.236 44.236 0 0 1-20.821-5.634v12.9c4.328 2.123 10.043 4.491 20.658 4.491 15.024 0 20.985-6.7 20.985-16.657M196.265 12.563v53.646h25.678l4.043-11.595h-17.147V12.563zM145.533 12.563v11.594h13.881v42.052h12.574V24.157h14.861V12.563zM127.3 12.563h-16.479L92.114 66.209H106.4l2.652-9.035a35.508 35.508 0 0 0 20.008 0l2.652 9.035h14.289L127.3 12.563zM119.06 47.5a24.4 24.4 0 0 1-6.875-.989L119.06 23.1l6.875 23.419a24.4 24.4 0 0 1-6.875.981zM266.211 12.563h-16.478l-18.707 53.646h14.289l2.652-9.035a35.508 35.508 0 0 0 20.008 0l2.652 9.035h14.289l-18.705-53.646zM257.972 47.5a24.4 24.4 0 0 1-6.875-.989l6.875-23.411 6.875 23.419a24.4 24.4 0 0 1-6.875.981zM458.644 12.563h-16.478l-18.707 53.646h14.289l2.652-9.035a35.508 35.508 0 0 0 20.008 0l2.652 9.035h14.29l-18.706-53.646zM450.4 47.5a24.4 24.4 0 0 1-6.875-.989L450.4 23.1l6.875 23.419a24.4 24.4 0 0 1-6.875.981z"/>
    </g>
</svg>
