<svg xmlns="http://www.w3.org/2000/svg" width="73" height="50" viewBox="0 0 73 50">
    <g fill="none" fill-rule="evenodd">
        <path fill="#010101" fill-rule="nonzero" d="M1.703 11.89L16.923 0 72.44 5.303l-4.205 44.614-55.61-5.211L0 29.938z"/>
        <path fill="#F6EB16" d="M2.617 12.353L17.284 1.012l54.142 5.2-4.008 42.69-54.327-5.2L.92 29.577z"/>
        <path fill="#010101" d="M27.668 10.34l12.29 1.175-.353 3.68-5.535-.528-.113 1.185 5.05.483-.324 3.375-5.02-.477-.128 1.339 5.66.54-.336 3.5-12.38-1.186zM41.791 20.285l-2.325 3.43s2.92 1.57 6.972 1.923c4.046.359 7.013-.801 7.964-2.738.954-1.932-.188-4.13-2.062-4.74-1.876-.607-5.13-1.255-4.791-1.9.338-.642 2.38-.509 3.62.009 1.24.517 1.58.827 1.58.827l2.133-3.05s-2.267-1.66-6.51-1.912c-4.244-.252-7.364 1.874-7.581 3.848-.22 1.976 1.05 3.141 2.978 3.847 0 0 1.637.526 2.872.795 1.231.272 2.015 1.084.543 1.373-1.472.29-4.5-.798-5.393-1.712zM58.682 17.631l-3.618-.344.405-4.26 13.933 1.33-.406 4.26-3.62-.347-.844 8.851-6.605-.63zM28.695 25.297l6.393.578-.68 7.426s-.63 1.781 1.498 1.987c2.132.202 2.037-1.712 2.037-1.712l.7-7.33 6.419.612-.824 8.64s-.758 4.717-8.609 3.968c-7.848-.749-7.741-5.71-7.741-5.71l.807-8.46z"/>
        <path fill="#010101" d="M52.424 27.564l1.833 3.612 2.366-3.21 7.452.708-6.952 6.889-.538 5.627-6.538-.625.526-5.535-5.575-8.146zM24.568 31.355s2.692-.53 2.623-3.28c-.07-2.752-5.564-3.435-5.564-3.435l-9.068-.9-1.238 13.132s7.238.76 9.346.931c2.108.168 6.356-.011 6.775-2.727.417-2.717-2.874-3.721-2.874-3.721zm-6.191-3.76s2.785-.257 2.631 1.05c-.156 1.304-2.802.715-2.802.715l.17-1.764zm-.581 6.698l.144-2.134s3.482-.13 3.369 1.365c-.113 1.495-3.513.769-3.513.769z"/>
        <path fill="#010101" fill-rule="nonzero" d="M23.244 16.31s2.692-.53 2.623-3.28c-.07-2.75-5.564-3.438-5.564-3.438l-9.072-.896-1.234 13.13s7.238.761 9.343.93c2.108.173 6.356-.01 6.775-2.725.42-2.718-2.871-3.722-2.871-3.722zm-6.137-3.725s2.788-.255 2.635 1.05c-.156 1.304-2.802.714-2.802.714l.167-1.764zm-.578 6.7l.145-2.137s3.478-.127 3.369 1.368c-.113 1.492-3.514.769-3.514.769zM8.062 21.937a2.462 2.462 0 1 1-4.904-.469 2.462 2.462 0 1 1 4.904.468z"/>
        <path fill="#FFF" fill-rule="nonzero" d="M7.163 21.853a1.558 1.558 0 1 1-3.102-.296 1.558 1.558 0 0 1 3.102.296z"/>
        <path fill="#010101" fill-rule="nonzero" d="M64.124 29.964a1.06 1.06 0 1 1 2.11.202 1.06 1.06 0 0 1-2.11-.202zm1.85.176c.05-.494-.274-.885-.714-.925-.442-.043-.832.28-.879.772-.049.495.275.885.715.928.442.04.832-.28.879-.775zm-1.144-.717l.442.044c.29.026.434.141.41.393-.02.205-.147.292-.343.292l.271.552-.231-.02-.257-.547-.136-.011-.05.515-.222-.02.116-1.198zm.173.532l.194.02c.133.012.248.006.263-.156.015-.138-.11-.173-.226-.185l-.2-.02-.03.341z"/>
    </g>
</svg>
