<svg xmlns="http://www.w3.org/2000/svg" width="150" height="22" viewBox="0 0 150 22">
    <path fill="#4A89DC" fill-rule="nonzero" d="M75.39 6.807c.09-1.758.72-3.195 1.706-4.316V.998h-1.31c-2.645 0-4.885 1.015-6.187 3.306h-.076V1.25h-6.787v18.62h6.788v-7.517c0-3.19.934-5.622 4.7-5.622.41.003.794.026 1.165.076zm51.392-.068a11.057 11.057 0 0 1 2.667-4.287V.997h-1.307c-2.647 0-4.884 1.014-6.193 3.304h-.074V1.25h-6.79V19.87h6.79v-7.517c0-3.19.937-5.622 4.703-5.622l.204.008zM89.174 6.04c-1.047-.545-2.504-.908-3.664-.908-.778 0-2.124.324-2.124 1.27 0 1.272 2.124 1.452 3.063 1.638 3.164.615 5.558 2.068 5.558 5.512 0 4.898-4.59 6.938-9.032 6.938-2.725 0-5.405-.764-7.722-2.144l2.462-4.612c1.379.947 3.692 1.888 5.37 1.888.86 0 2.127-.398 2.127-1.415 0-1.452-2.126-1.528-4.255-2.07-2.124-.545-4.248-1.56-4.248-4.899 0-4.574 4.248-6.604 8.434-6.604 2.164 0 4.33.326 6.302 1.197l-2.27 4.209zm60.631 13.829h-6.788v-2.071h-.075c-1.193 1.85-3.549 2.684-5.783 2.684-5.674 0-9.663-4.61-9.663-9.946 0-5.33 3.918-9.906 9.587-9.906 2.2 0 4.516.798 5.933 2.43V1.25h6.787l.002 18.619zm-15.294-9.293c0 2.358 1.606 4.173 4.363 4.173 2.76 0 4.36-1.812 4.36-4.173 0-2.287-1.6-4.21-4.36-4.21-2.757.002-4.363 1.923-4.363 4.21zm-20.497 1.092H99.722c0 2.684 1.459 4.134 4.255 4.134 1.455 0 2.498-.47 3.246-1.705h6.53c-1.082 4.392-5.373 6.388-9.737 6.388-6.338 0-11.075-3.486-11.075-9.907 0-6.206 4.36-9.944 10.589-9.944 6.64 0 10.486 3.994 10.486 10.343l-.003.691zm-6.306-3.814c-.337-1.778-2.016-2.94-3.841-2.94-1.98 0-3.615 1.014-4.032 2.94h7.873zm-66.563 2.398a13.53 13.53 0 0 0-.03-.476V9.77a10.234 10.234 0 0 0-1.692-4.804 10.504 10.504 0 0 0-1.48-1.773 10.715 10.715 0 0 0-2.796-1.928C33.56.508 31.808.126 29.938.126a12.57 12.57 0 0 0-4.344.758c-1.204.434-2.253 1.01-3.11 1.7a10.89 10.89 0 0 0-.568.495l-.147.144-.2.213h.002l-.094.093-.046.05-.24.252c-.172.194-.34.393-.504.595l-.001-.003-.006-.006c-.328.4-.631.812-.855 1.183-.151.24-.298.483-.44.729l-1.957 3.958.002.002-.102.201-.216.438c-.43.869-.89 1.734-1.404 2.45-1.145 1.255-2.44 1.87-4.105 1.87-.117 0-.236-.005-.358-.012-1.003-.04-1.863-.277-2.626-.728a4.936 4.936 0 0 1-.237-.15 4.386 4.386 0 0 1-1.459-1.61 4.538 4.538 0 0 1-.556-2.335l.002-.06c.054-1.296.549-2.305 1.545-3.176a5.353 5.353 0 0 1 .872-.607c.74-.403 1.582-.604 2.548-.604l.3.008c1.534.059 2.717.538 3.66 1.473l2.96-5.313A11.67 11.67 0 0 0 15.864.922c-.033-.012-.068-.026-.102-.037-.106-.038-.21-.076-.318-.111a12.667 12.667 0 0 0-2.93-.593l-.077-.01c-.155-.01-.313-.029-.468-.036-.169-.006-.337-.01-.506-.01h-.096C9.508.13 7.78.511 6.198 1.266c-1.77.853-3.205 2.096-4.27 3.697a10.252 10.252 0 0 0-1.722 5.287c-.007.162-.01.323-.011.485-.002 2.667.971 5.014 2.905 6.984 2.018 2.067 4.643 3.18 7.795 3.312.202.008.402.014.6.014 1.784 0 3.434-.317 4.913-.952.37-.158.729-.343 1.096-.55.2-.115.388-.236.575-.367l.138-.092.233-.16c.278-.201.544-.418.797-.65l.088-.084c.15-.142.297-.287.44-.435l.531-.6.202-.253.095-.139.094-.136c.788-1.324 3.354-6.143 3.354-6.143v-.01l.152-.294.127-.23c.379-.688.652-1.177 1.013-1.691l.01-.015c.844-1.223 2.294-2.095 4.003-2.241 2.868-.247 5.38 1.637 5.612 4.208.23 2.57-1.909 4.855-4.776 5.103a5.727 5.727 0 0 1-1.725-.11l-.014.007c-2.104-.438-3.444-1.973-4.104-2.66l-2.76 5.075s.858.865 1.445 1.297c.589.43 1.35.855 1.956 1.118a12.18 12.18 0 0 0 4.843 1.005c.205 0 .163 0 .377-.008 3.148-.132 5.955-1.338 7.98-3.405 1.916-1.963 2.957-4.204 2.966-6.857v-.08a16.144 16.144 0 0 0-.01-.444zM51.701 20.5c-1.431 0-2.729-.166-3.894-.499-1.165-.332-2.16-.857-2.984-1.578-.827-.72-1.464-1.637-1.913-2.75-.449-1.112-.673-2.453-.673-4.015V1.247h6.548v10.326c0 1.171.28 2.019.838 2.548.56.53 1.27.795 2.132.795.88 0 1.596-.246 2.147-.741.549-.495.826-1.315.826-2.467V1.246h6.548V11.52c0 1.618-.23 2.993-.689 4.125-.458 1.133-1.105 2.059-1.938 2.779-.836.72-1.843 1.244-3.028 1.578-1.184.33-2.49.497-3.92.497z"/>
</svg>
