<svg xmlns="http://www.w3.org/2000/svg" width="359" height="282" viewBox="0 0 359 282">
    <g fill="none" fill-rule="evenodd">
        <path fill="#CDDCE6" d="M175.182 32.172l142.074 204.06H33.107z"/>
        <g transform="translate(134.992 32.172)">
            <circle cx="40.617" cy="40.617" r="40.617" fill="#ff6c37"/>
            <g transform="translate(19.496 10.56)">
                <rect width="42.242" height="42.242" y="8.936" fill="#FFF" stroke="#1C272B" stroke-width="2.437" rx="1.625"/>
                <rect width="33.848" height="9.477" x="4.197" y="37.503" fill="#F99D78" rx="1.625"/>
                <rect width="33.848" height="9.477" x="4.197" y="13.133" fill="#F99D78" rx="1.625"/>
                <rect width="33.848" height="9.477" x="4.197" y="25.318" fill="#F66839" rx="1.625"/>
                <text fill="#282828" fill-opacity=".471" font-family="OpenSans-Bold, Open Sans" font-size="6.499" font-weight="bold" style="mix-blend-mode:multiply">
                    <tspan x="14.66" y="32.183">GET</tspan>
                </text>
                <text fill="#282828" fill-opacity=".181" font-family="OpenSans-Bold, Open Sans" font-size="6.499" font-weight="bold" style="mix-blend-mode:multiply">
                    <tspan x="14.743" y="19.998">PUT</tspan>
                </text>
                <text fill="#282828" fill-opacity=".181" font-family="OpenSans-Bold, Open Sans" font-size="6.499" font-weight="bold" style="mix-blend-mode:multiply">
                    <tspan x="12.823" y="44.368">POST</tspan>
                </text>
            </g>
        </g>
        <path fill="#282828" d="M128.647 4.059c-1.125 0-1.996.422-2.613 1.268-.618.845-.926 2.023-.926 3.534 0 3.143 1.18 4.715 3.539 4.715.99 0 2.188-.248 3.596-.743v2.507c-1.157.483-2.449.724-3.876.724-2.05 0-3.62-.622-4.706-1.866-1.086-1.244-1.63-3.03-1.63-5.357 0-1.465.268-2.75.801-3.852.534-1.102 1.3-1.948 2.3-2.536 1-.588 2.171-.882 3.515-.882 1.369 0 2.745.331 4.127.993l-.965 2.43c-.527-.25-1.057-.47-1.59-.656a4.746 4.746 0 0 0-1.572-.28zm8.707 6.402c0 1.067.175 1.874.525 2.42.35.547.921.82 1.712.82.784 0 1.348-.271 1.692-.815.344-.543.516-1.351.516-2.425 0-1.067-.174-1.867-.52-2.4-.348-.534-.917-.801-1.707-.801-.785 0-1.35.265-1.698.795-.347.53-.52 1.333-.52 2.406zm7.453 0c0 1.755-.462 3.128-1.388 4.118-.926.99-2.215 1.485-3.867 1.485-1.035 0-1.948-.227-2.738-.68a4.523 4.523 0 0 1-1.823-1.953c-.424-.848-.636-1.838-.636-2.97 0-1.761.46-3.13 1.379-4.107.92-.978 2.211-1.466 3.876-1.466 1.035 0 1.948.225 2.739.675A4.505 4.505 0 0 1 144.17 7.5c.424.842.636 1.829.636 2.96zm5.371 5.41h-2.94V.867h2.94v15.004zm6.027 0h-2.941V.867h2.94v15.004zm7.55-8.89c-.624 0-1.112.197-1.466.592-.353.396-.556.957-.607 1.683h4.127c-.013-.726-.203-1.287-.57-1.683-.366-.395-.86-.593-1.484-.593zm.415 9.083c-1.736 0-3.092-.48-4.07-1.437-.977-.958-1.465-2.314-1.465-4.07 0-1.806.451-3.202 1.355-4.189.903-.987 2.151-1.48 3.746-1.48 1.523 0 2.71.434 3.558 1.302.848.867 1.272 2.066 1.272 3.596v1.427h-6.952c.032.836.28 1.489.743 1.958.463.47 1.112.704 1.948.704.649 0 1.263-.068 1.841-.203a9.215 9.215 0 0 0 1.813-.646v2.276a6.906 6.906 0 0 1-1.649.574c-.585.125-1.298.188-2.14.188zm11.166 0c-3.356 0-5.034-1.842-5.034-5.526 0-1.832.457-3.231 1.37-4.199.912-.967 2.22-1.451 3.924-1.451 1.247 0 2.365.244 3.355.733l-.867 2.275c-.463-.186-.894-.339-1.292-.458a4.163 4.163 0 0 0-1.196-.178c-1.53 0-2.295 1.086-2.295 3.26 0 2.108.765 3.162 2.295 3.162.566 0 1.09-.076 1.572-.227a5.675 5.675 0 0 0 1.446-.708v2.516a4.74 4.74 0 0 1-1.442.627c-.485.116-1.097.174-1.836.174zm10.317-2.344c.514 0 1.131-.112 1.851-.337v2.189c-.733.328-1.632.492-2.7.492-1.176 0-2.033-.298-2.57-.892-.536-.595-.804-1.487-.804-2.676V7.299h-1.408V6.055l1.62-.984.848-2.275h1.88V5.09h3.019V7.3h-3.018v5.197c0 .418.117.726.351.926.235.199.545.298.931.298zm3.905-11.416c0-.958.534-1.437 1.6-1.437 1.068 0 1.601.479 1.601 1.437 0 .456-.133.811-.4 1.065-.266.254-.667.381-1.2.381-1.067 0-1.6-.482-1.6-1.446zm3.066 13.567h-2.94V5.09h2.94v10.78zm5.43-5.41c0 1.067.174 1.874.525 2.42.35.547.92.82 1.711.82.784 0 1.349-.271 1.692-.815.344-.543.516-1.351.516-2.425 0-1.067-.173-1.867-.52-2.4-.347-.534-.916-.801-1.707-.801-.784 0-1.35.265-1.697.795s-.52 1.333-.52 2.406zm7.453 0c0 1.755-.463 3.128-1.389 4.118-.925.99-2.214 1.485-3.866 1.485-1.035 0-1.948-.227-2.739-.68a4.523 4.523 0 0 1-1.822-1.953c-.424-.848-.637-1.838-.637-2.97 0-1.761.46-3.13 1.38-4.107.919-.978 2.21-1.466 3.876-1.466 1.034 0 1.947.225 2.738.675A4.505 4.505 0 0 1 204.87 7.5c.425.842.637 1.829.637 2.96zm12.38 5.41h-2.94V9.574c0-.778-.138-1.361-.415-1.75-.276-.389-.717-.583-1.32-.583-.824 0-1.418.275-1.785.824-.366.55-.55 1.461-.55 2.734v5.072h-2.94V5.09h2.246l.396 1.378h.164c.328-.52.78-.914 1.354-1.18.576-.268 1.23-.401 1.963-.401 1.253 0 2.205.339 2.854 1.017.65.678.974 1.657.974 2.936v7.03zm10.55-3.202c0 1.106-.384 1.948-1.153 2.527-.768.578-1.917.868-3.447.868-.784 0-1.453-.053-2.005-.16a7.586 7.586 0 0 1-1.553-.467v-2.43c.547.257 1.162.472 1.847.646.684.174 1.287.26 1.808.26 1.067 0 1.6-.308 1.6-.925 0-.232-.07-.42-.212-.564-.141-.145-.386-.309-.733-.492s-.81-.397-1.388-.641c-.83-.348-1.439-.669-1.827-.965-.39-.295-.672-.635-.849-1.017-.177-.382-.265-.853-.265-1.413 0-.957.371-1.698 1.114-2.222.742-.524 1.795-.786 3.157-.786 1.299 0 2.562.283 3.79.848l-.887 2.122a16.319 16.319 0 0 0-1.514-.57 4.754 4.754 0 0 0-1.437-.22c-.868 0-1.302.234-1.302.703 0 .264.14.492.42.685.28.192.892.479 1.837.858.842.34 1.459.659 1.851.954.392.296.682.637.868 1.023.186.385.28.845.28 1.378z"/>
        <g transform="translate(18.7 163.824)">
            <circle cx="40.617" cy="40.617" r="40.617" fill="#ff6c37"/>
            <path fill="#FFF" stroke="#1C272B" stroke-linecap="round" stroke-width="2.437" d="M61.738 60.049a1.69 1.69 0 0 1-1.69 1.69H21.187a1.69 1.69 0 0 1-1.69-1.69V21.186c0-.933.757-1.69 1.69-1.69h38.863c.933 0 1.69.757 1.69 1.69v38.863z"/>
            <g transform="translate(23.558 23.558)">
                <rect width="15.661" height="15.661" fill="#F66839" rx="1.365"/>
                <rect width="15.661" height="15.661" x="18.458" fill="#F99D78" rx="1.365"/>
                <rect width="15.661" height="15.661" x="18.458" y="18.458" fill="#F99D78" rx="1.365"/>
                <rect width="15.661" height="15.661" y="18.458" fill="#F99D78" rx="1.365"/>
            </g>
        </g>
        <path fill="#282828" d="M15.646 276.98h-3.404l-1.91-7.405a36.05 36.05 0 0 1-.361-1.634c-.17-.826-.268-1.38-.294-1.664-.039.347-.135.905-.29 1.673a37.326 37.326 0 0 1-.356 1.644l-1.9 7.386H3.737L.14 262.883h2.941l1.804 7.695c.315 1.42.543 2.651.684 3.693.039-.367.127-.934.265-1.702.139-.768.269-1.364.39-1.789l2.055-7.897h2.825l2.054 7.897c.09.354.202.894.337 1.62.135.727.238 1.35.309 1.87a33.17 33.17 0 0 1 .308-1.875c.142-.748.27-1.354.386-1.817l1.794-7.695h2.94l-3.586 14.097zm7.077-5.409c0 1.067.175 1.874.526 2.42.35.547.92.82 1.711.82.784 0 1.349-.272 1.692-.815.344-.543.516-1.351.516-2.425 0-1.067-.173-1.867-.52-2.401-.348-.534-.916-.8-1.707-.8-.784 0-1.35.265-1.697.795s-.52 1.332-.52 2.406zm7.454 0c0 1.755-.463 3.127-1.389 4.117-.925.99-2.214 1.485-3.866 1.485-1.035 0-1.948-.226-2.739-.68a4.523 4.523 0 0 1-1.822-1.952c-.425-.849-.637-1.839-.637-2.97 0-1.761.46-3.13 1.38-4.108.918-.977 2.21-1.465 3.875-1.465 1.035 0 1.948.225 2.739.675a4.505 4.505 0 0 1 1.822 1.938c.425.842.637 1.829.637 2.96zm8.447-5.573c.398 0 .73.029.993.086l-.222 2.758a3.369 3.369 0 0 0-.868-.096c-.938 0-1.67.24-2.194.723-.523.482-.785 1.157-.785 2.025v5.486h-2.941V266.2h2.227l.434 1.813h.145a4.052 4.052 0 0 1 1.354-1.46 3.34 3.34 0 0 1 1.857-.555zm5.775 5.12l1.283-1.64L48.7 266.2h3.317l-4.281 4.677 4.541 6.103h-3.394l-3.105-4.368-1.263 1.013v3.355h-2.94v-15.003h2.94v6.692l-.154 2.449h.038zm16.942 2.661c0 1.106-.384 1.948-1.152 2.526-.768.579-1.917.868-3.447.868-.784 0-1.453-.053-2.006-.159a7.586 7.586 0 0 1-1.552-.467v-2.43c.546.257 1.162.472 1.846.646.685.173 1.288.26 1.808.26 1.067 0 1.6-.309 1.6-.926 0-.231-.07-.42-.211-.564-.142-.144-.386-.308-.733-.492-.347-.183-.81-.396-1.389-.64-.829-.348-1.438-.67-1.827-.965-.389-.296-.672-.635-.848-1.017-.177-.383-.266-.854-.266-1.413 0-.958.372-1.699 1.114-2.222.743-.524 1.795-.786 3.158-.786 1.299 0 2.562.282 3.79.848l-.888 2.122a16.319 16.319 0 0 0-1.513-.57 4.754 4.754 0 0 0-1.437-.221c-.868 0-1.302.234-1.302.704 0 .263.14.492.42.684.28.193.891.48 1.836.859.843.34 1.46.658 1.852.954.392.296.681.637.868 1.022.186.386.28.846.28 1.38zm8.216 3.394c-1.267 0-2.26-.46-2.98-1.379h-.154c.103.9.154 1.421.154 1.562v4.369h-2.94V266.2h2.39l.415 1.398h.135c.688-1.067 1.707-1.6 3.057-1.6 1.273 0 2.269.491 2.989 1.475.72.983 1.08 2.35 1.08 4.098 0 1.15-.169 2.15-.506 2.999-.338.848-.818 1.494-1.442 1.938-.623.443-1.356.665-2.198.665zm-.868-8.823c-.727 0-1.257.224-1.591.67-.334.447-.508 1.185-.52 2.214v.318c0 1.157.171 1.986.515 2.487.344.502.889.753 1.634.753 1.318 0 1.977-1.087 1.977-3.26 0-1.06-.162-1.856-.487-2.386-.324-.53-.834-.796-1.528-.796zm14.29 8.63l-.569-1.465h-.077c-.495.623-1.005 1.056-1.528 1.297-.524.24-1.207.361-2.05.361-1.034 0-1.85-.295-2.444-.887-.594-.591-.892-1.433-.892-2.526 0-1.144.4-1.988 1.2-2.531.801-.544 2.008-.844 3.622-.902l1.87-.058v-.472c0-1.093-.56-1.64-1.678-1.64-.861 0-1.873.26-3.037.782l-.974-1.987c1.24-.649 2.616-.974 4.127-.974 1.446 0 2.555.315 3.327.945.771.63 1.157 1.588 1.157 2.874v7.183h-2.054zm-.868-4.994l-1.138.038c-.855.026-1.491.18-1.909.463-.418.283-.627.714-.627 1.292 0 .83.476 1.244 1.427 1.244.682 0 1.227-.196 1.635-.588.408-.392.612-.913.612-1.562v-.887zm10.327 5.187c-3.355 0-5.033-1.841-5.033-5.525 0-1.832.456-3.232 1.37-4.2.912-.967 2.22-1.45 3.924-1.45 1.247 0 2.365.244 3.355.732l-.868 2.276c-.463-.186-.893-.339-1.292-.458a4.163 4.163 0 0 0-1.195-.178c-1.53 0-2.295 1.086-2.295 3.259 0 2.108.765 3.163 2.295 3.163.565 0 1.09-.076 1.571-.227a5.675 5.675 0 0 0 1.447-.709v2.517a4.74 4.74 0 0 1-1.442.627c-.485.115-1.098.173-1.837.173zm10.24-9.083c-.623 0-1.112.198-1.465.593-.354.395-.556.956-.608 1.683h4.127c-.012-.727-.202-1.288-.569-1.683-.366-.395-.86-.593-1.484-.593zm.415 9.083c-1.735 0-3.092-.479-4.069-1.436-.977-.958-1.466-2.315-1.466-4.07 0-1.806.452-3.202 1.355-4.19.903-.986 2.152-1.48 3.746-1.48 1.524 0 2.71.435 3.558 1.302.849.868 1.273 2.067 1.273 3.597v1.427h-6.952c.032.836.28 1.488.742 1.958.463.469 1.112.703 1.948.703.65 0 1.263-.067 1.842-.202a9.215 9.215 0 0 0 1.813-.646v2.276a6.906 6.906 0 0 1-1.65.573c-.584.126-1.298.188-2.14.188zm14.31-3.394c0 1.106-.384 1.948-1.153 2.526-.768.579-1.917.868-3.447.868-.784 0-1.453-.053-2.005-.159a7.586 7.586 0 0 1-1.553-.467v-2.43c.546.257 1.162.472 1.847.646.684.173 1.287.26 1.808.26 1.067 0 1.6-.309 1.6-.926 0-.231-.07-.42-.212-.564-.141-.144-.386-.308-.733-.492-.347-.183-.81-.396-1.388-.64-.83-.348-1.439-.67-1.828-.965-.388-.296-.671-.635-.848-1.017-.177-.383-.265-.854-.265-1.413 0-.958.371-1.699 1.113-2.222.743-.524 1.796-.786 3.158-.786 1.299 0 2.562.282 3.79.848l-.887 2.122a16.318 16.318 0 0 0-1.514-.57 4.754 4.754 0 0 0-1.437-.221c-.868 0-1.302.234-1.302.704 0 .263.14.492.42.684.28.193.892.48 1.837.859.842.34 1.459.658 1.851.954.392.296.682.637.868 1.022.186.386.28.846.28 1.38z"/>
        <g>
            <g transform="translate(254.576 163.824)">
                <circle cx="40.617" cy="40.617" r="40.617" fill="#ff6c37"/>
                <rect width="42.242" height="42.242" x="19.496" y="19.496" fill="#FFF" stroke="#1C272B" stroke-linecap="round" stroke-linejoin="round" stroke-width="2.437" rx="1.625"/>
                <path fill="#F66839" d="M39.311 44.383c.353-.101.733-.007.996.248l8.752 8.452a3.383 3.383 0 0 0 4.78-.086 3.386 3.386 0 0 0-.084-4.779l-8.846-8.543a1.023 1.023 0 0 1-.294-.943 8.204 8.204 0 0 0-.792-5.39 7.329 7.329 0 0 0-1.57-2.019c-2.081-1.86-5.278-2.425-7.96-1.414l3.452 3.313c.618.599.964 1.403.977 2.262a3.187 3.187 0 0 1-.906 2.29 3.228 3.228 0 0 1-4.545.084l-3.576-3.43c-.662 2.034-.4 4.395.82 6.452 1.237 2.091 3.232 3.48 5.474 3.81a7.23 7.23 0 0 0 3.299-.3l.023-.007zm11.952 6.833a1.062 1.062 0 0 1-1.01-.244 1.035 1.035 0 0 1-.009-1.447c.373-.406 1.057-.41 1.443-.032a1.03 1.03 0 0 1-.424 1.723"/>
                <path fill="#F99D78" d="M31.03 27.064l2.908 2.991-1.176 3.846-4.083.854-2.908-2.992 1.175-3.845 4.084-.854zm-1.496 4.894a1.097 1.097 0 1 0 .64-2.097 1.097 1.097 0 0 0-.64 2.097z"/>
            </g>
            <path fill="#282828" d="M233.49 262.883h4.387c1.999 0 3.45.285 4.353.853.904.57 1.355 1.474 1.355 2.715 0 .842-.198 1.533-.593 2.073-.395.54-.92.865-1.576.974v.096c.893.2 1.538.572 1.933 1.119.395.546.593 1.273.593 2.179 0 1.286-.465 2.288-1.393 3.008-.93.72-2.19 1.08-3.785 1.08h-5.275v-14.097zm2.989 5.583h1.735c.81 0 1.397-.125 1.76-.376.363-.25.545-.665.545-1.244 0-.54-.198-.927-.593-1.162-.396-.234-1.02-.352-1.876-.352h-1.571v3.134zm0 2.372v3.674h1.947c.823 0 1.43-.158 1.823-.473.392-.315.588-.797.588-1.446 0-1.17-.836-1.755-2.507-1.755h-1.851zm17.684 6.142l-.395-1.378h-.155c-.315.501-.761.888-1.34 1.161-.579.274-1.237.41-1.977.41-1.266 0-2.22-.339-2.864-1.017-.642-.678-.964-1.654-.964-2.926v-7.03h2.941v6.297c0 .778.138 1.36.415 1.75.276.389.717.583 1.32.583.824 0 1.418-.275 1.785-.824.366-.55.55-1.461.55-2.734V266.2h2.94v10.78h-2.256zm5.217-13.567c0-.957.533-1.436 1.6-1.436 1.067 0 1.6.479 1.6 1.436 0 .457-.133.812-.4 1.066-.266.254-.666.38-1.2.38-1.067 0-1.6-.481-1.6-1.446zm3.066 13.567h-2.941V266.2h2.94v10.78zm6.026 0h-2.94v-15.003h2.94v15.003zm7.628-2.15c.514 0 1.13-.112 1.85-.337v2.189c-.732.327-1.632.491-2.699.491-1.176 0-2.033-.297-2.57-.892-.536-.594-.805-1.486-.805-2.675v-5.198h-1.408v-1.244l1.62-.983.849-2.276h1.88v2.295h3.018v2.208h-3.018v5.198c0 .417.117.726.352.925.235.2.545.3.93.3zm3.076-1.938v-2.41h5.178v2.41h-5.178zm7.183-9.479c0-.957.534-1.436 1.6-1.436 1.068 0 1.601.479 1.601 1.436 0 .457-.133.812-.4 1.066-.266.254-.667.38-1.2.38-1.067 0-1.6-.481-1.6-1.446zm3.066 13.567h-2.94V266.2h2.94v10.78zm13.037 0h-2.94v-6.296c0-.778-.14-1.361-.415-1.75-.277-.39-.717-.584-1.322-.584-.822 0-1.417.275-1.783.825-.367.55-.55 1.46-.55 2.733v5.072h-2.94V266.2h2.246l.395 1.379h.164c.328-.52.78-.914 1.355-1.181s1.23-.4 1.962-.4c1.254 0 2.205.339 2.854 1.017.65.678.974 1.657.974 2.936v7.03zm13.827 0H313.3v-11.61h-3.828v-2.487h10.645v2.488h-3.828v11.61zm6.73-5.409c0 1.067.176 1.874.526 2.42.35.547.921.82 1.712.82.784 0 1.348-.272 1.692-.815.344-.543.516-1.351.516-2.425 0-1.067-.174-1.867-.52-2.401-.348-.534-.917-.8-1.707-.8-.785 0-1.35.265-1.697.795-.348.53-.521 1.332-.521 2.406zm7.454 0c0 1.755-.462 3.127-1.388 4.117-.926.99-2.215 1.485-3.867 1.485-1.035 0-1.947-.226-2.738-.68a4.523 4.523 0 0 1-1.823-1.952c-.424-.849-.636-1.839-.636-2.97 0-1.761.46-3.13 1.379-4.108.92-.977 2.211-1.465 3.876-1.465 1.035 0 1.948.225 2.739.675a4.505 4.505 0 0 1 1.822 1.938c.424.842.636 1.829.636 2.96zm4.774 0c0 1.067.175 1.874.525 2.42.35.547.92.82 1.712.82.784 0 1.348-.272 1.692-.815.344-.543.516-1.351.516-2.425 0-1.067-.174-1.867-.521-2.401-.347-.534-.916-.8-1.707-.8-.784 0-1.35.265-1.697.795s-.52 1.332-.52 2.406zm7.453 0c0 1.755-.463 3.127-1.388 4.117-.926.99-2.215 1.485-3.867 1.485-1.035 0-1.948-.226-2.738-.68a4.523 4.523 0 0 1-1.823-1.952c-.424-.849-.636-1.839-.636-2.97 0-1.761.46-3.13 1.379-4.108.919-.977 2.21-1.465 3.876-1.465 1.035 0 1.948.225 2.738.675a4.505 4.505 0 0 1 1.823 1.938c.424.842.636 1.829.636 2.96zm5.371 5.41h-2.94v-15.004h2.94v15.003zm10.607-3.202c0 1.106-.384 1.948-1.153 2.526-.768.579-1.917.868-3.447.868-.784 0-1.453-.053-2.005-.159a7.586 7.586 0 0 1-1.553-.467v-2.43c.547.257 1.162.472 1.847.646.684.173 1.287.26 1.808.26 1.067 0 1.6-.309 1.6-.926 0-.231-.07-.42-.212-.564-.141-.144-.385-.308-.733-.492-.347-.183-.81-.396-1.388-.64-.83-.348-1.438-.67-1.827-.965-.39-.296-.672-.635-.849-1.017-.177-.383-.265-.854-.265-1.413 0-.958.371-1.699 1.114-2.222.742-.524 1.795-.786 3.158-.786 1.298 0 2.561.282 3.789.848l-.887 2.122a16.319 16.319 0 0 0-1.514-.57 4.754 4.754 0 0 0-1.437-.221c-.868 0-1.301.234-1.301.704 0 .263.14.492.419.684.28.193.892.48 1.837.859.842.34 1.46.658 1.851.954.392.296.682.637.868 1.022.187.386.28.846.28 1.38z"/>
        </g>
        <path fill="#282828" d="M176.827 162.727h6.583a2.194 2.194 0 0 1 0 4.388h-6.583v6.583a2.194 2.194 0 1 1-4.388 0v-6.583h-6.583a2.194 2.194 0 0 1 0-4.388h6.583v-6.583a2.194 2.194 0 0 1 4.388 0v6.583z"/>
    </g>
</svg>
