<svg xmlns="http://www.w3.org/2000/svg" xmlns:xlink="http://www.w3.org/1999/xlink" width="150" height="33" viewBox="0 0 150 33">
    <defs>
        <path id="a" d="M.064.046h16.959v20.96H.064z"/>
        <path id="c" d="M.019.043h3.276v8.743H.019z"/>
        <path id="e" d="M0 .045h15.238v15.239H0z"/>
    </defs>
    <g fill="none" fill-rule="evenodd">
        <path fill="#F25022" d="M0 0h15.238l-.001 15.238H0V0z"/>
        <path fill="#FEFEFE" d="M15.238 0h1.556v15.238h15.237c.002-5.08 0-10.159 0-15.238H150v11.85c-1.087.004-2.174-.007-3.26.008-.026-1.375-.004-2.75-.013-4.126-1.087.328-2.168.677-3.26.988-.027 1.043-.002 2.088-.014 3.13-1.607 0-3.214.003-4.822-.001.02-.822-.056-1.65.062-2.467.098-.645.471-1.289 1.099-1.538.792-.325 1.677-.109 2.429.223-.005-.942.007-1.884-.007-2.825-1.583-.435-3.398-.35-4.802.564-.907.58-1.564 1.508-1.86 2.537-.349 1.14-.17 2.343-.226 3.512-.763-.005-1.524-.012-2.285.005.009.88.005 1.76.002 2.64.765.016 1.53-.002 2.294.012-.007 3.705-.002 7.409-.002 11.113h3.296V14.51c1.608-.003 3.216-.002 4.824-.001.004 2.362-.005 4.723.003 7.084.015 1.1.202 2.276.93 3.145.632.768 1.633 1.12 2.6 1.191 1.018.073 2.07-.052 3.012-.46v6.564H32.032V16.794H16.795c-.002 5.08 0 10.158-.001 15.238h-1.556V16.795c-5.08-.003-10.159 0-15.238-.002v-1.555h15.237V0"/>
        <path fill="#80BA01" d="M16.794 0h15.238l-.001 15.238H16.795c-.002-5.08-.001-10.159-.001-15.238"/>
        <g transform="translate(132.977 4.942)">
            <mask id="b" fill="#fff">
                <use xlink:href="#a"/>
            </mask>
            <path fill="#777" d="M4.434.864C5.84-.05 7.654-.136 9.237.3c.014.941.002 1.883.006 2.824-.752-.33-1.637-.547-2.428-.222-.628.249-1.002.893-1.1 1.538-.118.817-.04 1.645-.06 2.467 1.606.004 3.213 0 4.82.002.012-1.044-.013-2.088.014-3.131 1.093-.311 2.174-.66 3.26-.988.01 1.375-.012 2.75.013 4.126 1.086-.015 2.173-.004 3.26-.007v2.676c-1.09-.045-2.182-.012-3.273-.016.005 1.539 0 3.077.002 4.616.017.853-.046 1.71.054 2.558.06.501.242 1.056.712 1.315.786.44 1.784.248 2.506-.236v2.703c-.942.41-1.995.534-3.013.461-.967-.071-1.968-.423-2.599-1.191-.728-.869-.916-2.045-.93-3.145-.009-2.361 0-4.722-.004-7.084-1.608-.001-3.216-.002-4.823 0-.002 3.706 0 7.412 0 11.117H2.357c0-3.704-.005-7.408.001-11.113-.764-.014-1.529.004-2.293-.012.003-.88.006-1.76-.002-2.64.76-.017 1.522-.01 2.284-.005.056-1.17-.122-2.373.227-3.512.296-1.029.953-1.957 1.86-2.537" mask="url(#b)"/>
        </g>
        <path fill="#777" d="M66.852 5.998c.664-.1 1.384.126 1.824.646.516.57.611 1.476.229 2.14-.423.751-1.37 1.1-2.194.92-.856-.154-1.569-.95-1.53-1.836-.025-.934.756-1.765 1.671-1.87M41.595 6.406h4.793c1.492 3.788 2.995 7.573 4.488 11.36.382.948.739 1.906 1.139 2.846 1.92-4.733 3.866-9.455 5.77-14.195 1.537-.024 3.074-.005 4.612-.009-.004 6.406-.002 12.811-.001 19.216-1.11-.002-2.218.01-3.326-.006.012-4.727 0-9.454.006-14.182a8.225 8.225 0 0 0-.02-.637 2.54 2.54 0 0 0-.173.308c-1.905 4.838-3.846 9.663-5.74 14.506-.789.029-1.578.002-2.368.015-1.965-4.838-3.905-9.688-5.86-14.53a3.657 3.657 0 0 0-.166-.293c-.04 2.07-.006 4.144-.017 6.215 0 2.868-.002 5.736 0 8.604-1.045.003-2.091 0-3.137.001V6.406M75.922 11.838a9.021 9.021 0 0 1 4.895.015c.328.091.645.218.94.391-.018 1.05 0 2.1-.01 3.151-1.063-.811-2.41-1.326-3.762-1.156a3.87 3.87 0 0 0-2.737 1.52c-.825 1.075-1.015 2.502-.873 3.816.106 1.029.532 2.056 1.331 2.738.831.739 1.997 1 3.084.918 1.074-.123 2.088-.578 2.957-1.213.009.995-.005 1.99.007 2.984-1.347.802-2.962 1.009-4.504.933-1.578-.084-3.151-.681-4.294-1.79-1.24-1.197-1.914-2.902-1.994-4.611-.08-1.777.281-3.63 1.303-5.113.857-1.266 2.197-2.162 3.657-2.583M98.25 11.601c1.581-.201 3.25-.112 4.717.556 1.274.575 2.307 1.638 2.879 2.91.61 1.354.758 2.875.655 4.344-.102 1.434-.552 2.871-1.449 4.01-.918 1.21-2.302 2.03-3.783 2.335a9.464 9.464 0 0 1-3.859-.003c-1.515-.324-2.918-1.204-3.807-2.483-1.043-1.483-1.34-3.368-1.207-5.145.09-1.507.558-3.026 1.521-4.209 1.054-1.324 2.671-2.105 4.333-2.315M111.92 11.628c1.524-.268 3.12-.07 4.562.475.002 1.01 0 2.02 0 3.03a5.807 5.807 0 0 0-3.46-1.023c-.616.024-1.294.285-1.574.87-.224.58-.07 1.34.477 1.687.935.625 2.05.89 3.018 1.45.762.428 1.501.989 1.888 1.796.725 1.512.418 3.51-.858 4.637-1.218 1.139-2.972 1.453-4.586 1.393-1.146-.074-2.297-.3-3.35-.769.004-1.062-.007-2.124.005-3.186.886.644 1.908 1.104 2.99 1.29.753.123 1.572.129 2.274-.208.672-.334.793-1.288.394-1.872-.374-.45-.922-.699-1.439-.942-.97-.437-1.991-.802-2.844-1.456-.6-.468-1.054-1.127-1.231-1.87-.264-1.095-.181-2.33.456-3.287.727-1.116 1.991-1.785 3.279-2.015M124.516 11.596c1.645-.204 3.391-.093 4.892.665 1.309.654 2.324 1.837 2.83 3.204.397 1.046.536 2.175.513 3.29.003 1.663-.446 3.37-1.49 4.69-.978 1.278-2.473 2.108-4.052 2.369-1.544.25-3.175.185-4.642-.393a6.108 6.108 0 0 1-3.348-3.248c-.652-1.498-.72-3.184-.518-4.784.214-1.601.938-3.166 2.174-4.23 1.012-.889 2.315-1.392 3.641-1.563M89.126 12.062c.91-.546 2.066-.592 3.059-.258-.005 1.1 0 2.198-.003 3.298a3.503 3.503 0 0 0-2.228-.524c-.935.106-1.676.825-2.06 1.648-.418.873-.497 1.86-.47 2.813v6.586h-3.25c-.002-4.588.004-9.178-.002-13.767 1.085-.014 2.169-.008 3.254-.003-.005.788 0 1.576-.003 2.365.352-.857.877-1.69 1.703-2.158M65.48 11.855c1.093-.004 2.187-.015 3.28.006-.014 4.588-.002 9.177-.006 13.764h-3.272c-.003-4.59 0-9.179-.002-13.77"/>
        <path fill="#FEFEFE" d="M99.232 14.217c.99-.065 2.045.215 2.757.935.761.749 1.056 1.835 1.138 2.87.058 1.135.012 2.316-.464 3.367-.315.708-.892 1.307-1.62 1.59-.85.327-1.807.346-2.686.119-.894-.236-1.652-.882-2.065-1.704-.53-1.06-.61-2.286-.5-3.448.099-1.057.467-2.144 1.272-2.874.584-.545 1.38-.811 2.168-.855M125.406 14.22c.93-.066 1.925.15 2.64.778.66.547 1.025 1.367 1.193 2.193.188.968.187 1.97.027 2.943-.126.725-.377 1.448-.852 2.022-.478.576-1.19.928-1.925 1.036-.79.118-1.62.061-2.358-.256-.796-.337-1.413-1.026-1.738-1.819-.39-.944-.468-1.99-.39-3 .075-.98.352-1.983.998-2.744.59-.71 1.494-1.102 2.405-1.154"/>
        <g transform="translate(146.705 14.46)">
            <mask id="d" fill="#fff">
                <use xlink:href="#c"/>
            </mask>
            <path fill="#FEFEFE" d="M.021.051C1.112.055 2.204.022 3.295.067v8.237c-.722.484-1.72.676-2.506.236-.47-.26-.652-.814-.712-1.315-.1-.849-.037-1.705-.054-2.558C.022 3.128.026 1.59.02.051" mask="url(#d)"/>
        </g>
        <g transform="translate(0 16.748)">
            <mask id="f" fill="#fff">
                <use xlink:href="#e"/>
            </mask>
            <path fill="#02A4EF" d="M0 .045C5.08.047 10.159.044 15.238.047v15.237H0V.044z" mask="url(#f)"/>
        </g>
        <path fill="#FFB902" d="M16.795 16.795c5.078-.002 10.157-.001 15.237-.001v15.238H16.794V16.795"/>
    </g>
</svg>
