<svg xmlns="http://www.w3.org/2000/svg" width="150" height="44" viewBox="0 0 150 44">
    <g fill="#00A1DF" fill-rule="nonzero">
        <path d="M22.24 42.302c-11.168 0-20.22-9.003-20.22-20.112-.013-11.122 9.038-20.126 20.22-20.126 11.167 0 20.218 9.004 20.218 20.113 0 11.108-9.051 20.125-20.219 20.125zM22.225.095C10.007.095.068 9.941.068 22.041.068 34.154 10.007 44 22.226 44c12.218 0 22.17-9.846 22.17-21.946 0-12.113-9.938-21.959-22.17-21.959z"/>
        <path d="M16.452 32.233c-3.309-1.582-5.605-5.16-5.605-9.302 0-2.188.635-4.211 1.729-5.862l7.213 10.953h4.363l7.212-10.953c1.094 1.65 1.73 3.687 1.73 5.862 0 3.867-2 7.224-4.944 8.958l1.39 5.422c5.296-2.78 8.902-8.394 8.902-14.876 0-6.123-3.228-11.463-8.037-14.38l-8.374 13.17L13.737 8c-4.862 2.904-8.13 8.284-8.13 14.435 0 6.716 3.876 12.51 9.481 15.165l1.364-5.367zM61.33 24.25L55.76 12.8h-2.903v18.4h2.903V18.902l4.494 8.97h2.15l4.382-8.97V31.2h2.89V12.8h-2.89zM79.904 26.588c0 2.07-1.214 2.996-2.652 2.996-1.439 0-2.587-.898-2.587-2.996V18.4H72.08v8.588c0 1.519.303 2.79 1.293 3.797.766.76 1.848 1.215 3.167 1.215 1.293 0 2.534-.497 3.418-1.505v1.353h2.533V18.414h-2.586v8.174zM87.725 27.428V12.8h-2.832v14.777c0 1.94 1.17 3.623 3.858 3.623h1.748v-2.25h-1.242c-1.142 0-1.532-.511-1.532-1.522zM93.93 23.308c.027-.806.081-1.202.34-1.803.422-.997 1.39-1.68 2.643-1.68s2.193.683 2.616 1.68c.259.601.34.997.368 1.803h-5.968zm2.983-5.708c-3.392 0-5.613 2.485-5.613 6.786 0 5.053 2.643 6.814 5.967 6.814 2.33 0 3.61-.71 4.96-2.076l-1.717-1.597c-.94.942-1.73 1.365-3.216 1.365-2.166 0-3.378-1.433-3.378-3.714h8.596v-1.174c.014-3.782-2.043-6.404-5.599-6.404zM116.165 22.587c-.81-.72-1.801-1.148-3.56-1.41l-2.165-.318c-.88-.138-1.662-.456-2.137-.871-.502-.456-.726-1.064-.726-1.756 0-1.672 1.229-2.944 3.477-2.944 1.606 0 2.975.346 4.148 1.452l1.843-1.797c-1.634-1.493-3.393-2.143-5.921-2.143-3.966 0-6.382 2.253-6.382 5.543 0 1.534.461 2.737 1.397 3.608.824.774 2.067 1.3 3.617 1.506l2.248.318c1.13.152 1.606.346 2.094.802.503.442.754 1.147.754 1.963 0 1.825-1.452 2.889-3.937 2.889-1.955 0-3.477-.429-4.874-1.797l-1.927 1.88c1.815 1.825 3.882 2.488 6.759 2.488 3.993 0 6.856-2.073 6.856-5.543-.014-1.603-.517-2.958-1.564-3.87zM126.11 28.032c-.496.492-1.187.778-1.988.778-.8 0-1.463-.286-1.96-.778-.829-.805-.926-2.198-.926-3.646 0-1.447.11-2.826.925-3.645.498-.492 1.16-.765 1.961-.765.787 0 1.478.26 1.989.765.814.805.925 2.198.925 3.645 0 1.434-.11 2.827-.925 3.646zM124.123 17.6c-1.822 0-3.12.683-4.004 1.57-1.27 1.311-1.588 2.99-1.588 5.216 0 2.253.317 3.933 1.588 5.244.87.887 2.168 1.57 4.004 1.57 1.823 0 3.148-.683 4.032-1.57 1.27-1.311 1.588-2.99 1.588-5.244 0-2.225-.317-3.905-1.588-5.216-.884-.887-2.21-1.57-4.032-1.57zM132.94 16.421v2.005h-1.596v2.004h1.597V31.2h2.82V20.43h2.79v-2.004h-2.79v-1.871c0-.949.489-1.51 1.54-1.51h1.236V12.8h-1.77c-2.603 0-3.826 1.75-3.826 3.621zM143.326 14.4h-2.537v3.962h-1.436v2.014h1.436v7.185c0 1.88 1.088 3.639 3.456 3.639h1.515v-2.243h-1.049c-.945 0-1.385-.564-1.385-1.517v-7.064h2.434v-2.014h-2.434V14.4zM149.385 17.344a1.15 1.15 0 0 1-.274.428 1.54 1.54 0 0 1-.41.291 1.157 1.157 0 0 1-.516.107c-.182 0-.364-.03-.516-.107a1.172 1.172 0 0 1-.41-.29 1.286 1.286 0 0 1-.273-.43 1.617 1.617 0 0 1-.107-.55c0-.2.03-.368.107-.537a1.15 1.15 0 0 1 .273-.428 1.54 1.54 0 0 1 .41-.291c.167-.077.334-.107.516-.107s.35.03.516.107c.152.076.304.168.41.29.122.123.213.261.274.43.06.168.106.352.106.535a2.087 2.087 0 0 1-.106.552zm.258-1.18a1.499 1.499 0 0 0-.35-.505 1.805 1.805 0 0 0-.5-.337 1.671 1.671 0 0 0-.623-.122c-.213 0-.425.046-.623.122a1.677 1.677 0 0 0-.516.337 1.499 1.499 0 0 0-.349.506 1.448 1.448 0 0 0-.121.627c0 .23.045.444.121.643.091.2.197.368.35.506.151.137.318.26.515.337.198.076.395.122.623.122.213 0 .425-.046.622-.122a1.45 1.45 0 0 0 .501-.337c.152-.138.259-.322.35-.506.09-.199.121-.413.121-.643 0-.23-.03-.428-.121-.627z"/>
        <path d="M148.04 16.702h-.348v-.507h.436c.052 0 .104 0 .174.013.052 0 .104.013.156.04.053.012.087.038.105.077.035.026.035.078.035.13 0 .065-.018.117-.053.143a.229.229 0 0 1-.121.078c-.053.013-.105.026-.175.026h-.209zm.732.065c.104-.065.156-.169.156-.312 0-.156-.052-.273-.191-.338-.122-.078-.313-.117-.557-.117h-.819v1.6h.331v-.69h.348l.575.69h.348l-.61-.702c.192-.026.314-.065.419-.13z"/>
    </g>
</svg>
