<svg xmlns="http://www.w3.org/2000/svg" width="150" height="36" viewBox="0 0 150 36">
    <g fill="none" fill-rule="evenodd">
        <path fill="#253B80" d="M55.988 8.031h-8.286c-.567 0-1.05.405-1.138.955l-3.35 20.87a.682.682 0 0 0 .683.782h3.955c.567 0 1.05-.404 1.138-.955l.904-5.629c.087-.55.57-.956 1.136-.956h2.623c5.458 0 8.608-2.594 9.431-7.735.37-2.249.016-4.016-1.056-5.254-1.178-1.359-3.267-2.078-6.04-2.078m.956 7.623c-.454 2.92-2.725 2.92-4.922 2.92h-1.25l.877-5.454a.687.687 0 0 1 .683-.573h.572c1.497 0 2.908 0 3.637.838.435.5.569 1.243.403 2.269M80.756 15.56h-3.968a.688.688 0 0 0-.682.572l-.176 1.09-.277-.395c-.859-1.225-2.775-1.634-4.686-1.634-4.385 0-8.13 3.262-8.86 7.838-.379 2.282.16 4.465 1.479 5.987 1.209 1.4 2.939 1.982 4.997 1.982 3.533 0 5.492-2.231 5.492-2.231l-.177 1.083a.682.682 0 0 0 .682.785h3.573c.569 0 1.049-.404 1.138-.955l2.145-13.34a.68.68 0 0 0-.68-.782m-5.53 7.585c-.384 2.226-2.183 3.72-4.478 3.72-1.152 0-2.073-.362-2.664-1.05-.586-.683-.81-1.655-.623-2.738.358-2.207 2.188-3.751 4.447-3.751 1.127 0 2.043.368 2.646 1.062.604.7.844 1.679.671 2.757M101.888 15.56h-3.987c-.38 0-.738.185-.954.496l-5.5 7.957-2.33-7.647a1.152 1.152 0 0 0-1.105-.806h-3.918a.68.68 0 0 0-.655.897l4.391 12.66-4.129 5.725c-.325.45.003 1.07.564 1.07h3.982c.378 0 .732-.18.946-.485l13.262-18.802c.318-.45-.008-1.065-.567-1.065"/>
        <path fill="#179BD7" d="M115.09 8.031h-8.288c-.565 0-1.048.405-1.136.955l-3.351 20.87a.681.681 0 0 0 .68.782h4.253a.8.8 0 0 0 .795-.669l.951-5.915c.087-.55.57-.956 1.137-.956h2.621c5.46 0 8.608-2.594 9.432-7.735.372-2.249.015-4.016-1.057-5.254-1.177-1.359-3.264-2.078-6.038-2.078m.956 7.623c-.452 2.92-2.723 2.92-4.921 2.92h-1.249l.878-5.454a.685.685 0 0 1 .681-.573h.573c1.495 0 2.908 0 3.638.838.434.5.567 1.243.4 2.269M139.856 15.56h-3.965c-.34 0-.63.243-.68.572l-.177 1.09-.278-.395c-.86-1.225-2.774-1.634-4.686-1.634-4.384 0-8.128 3.262-8.857 7.838-.378 2.282.159 4.465 1.477 5.987 1.211 1.4 2.939 1.982 4.997 1.982 3.533 0 5.492-2.231 5.492-2.231l-.176 1.083a.682.682 0 0 0 .683.785h3.573c.566 0 1.048-.404 1.136-.955l2.146-13.34a.684.684 0 0 0-.685-.782m-5.53 7.585c-.381 2.226-2.183 3.72-4.477 3.72-1.15 0-2.073-.362-2.664-1.05-.587-.683-.807-1.655-.623-2.738.36-2.207 2.187-3.751 4.447-3.751 1.126 0 2.042.368 2.646 1.062.606.7.846 1.679.67 2.757M144.534 8.604l-3.4 21.251a.681.681 0 0 0 .68.784h3.42c.568 0 1.05-.405 1.137-.956l3.354-20.868a.682.682 0 0 0-.681-.785h-3.829a.688.688 0 0 0-.68.574"/>
        <path fill="#253B80" d="M8.803 34.694l.634-3.953-1.411-.032h-6.74L5.969 1.538a.387.387 0 0 1 .381-.32h11.364c3.773 0 6.377.772 7.736 2.294.638.714 1.043 1.46 1.24 2.28.206.863.21 1.892.008 3.148l-.014.091v.805l.637.354c.536.28.963.6 1.29.967.546.61.898 1.386 1.047 2.306.154.946.103 2.072-.149 3.346-.29 1.466-.76 2.743-1.396 3.788a7.847 7.847 0 0 1-2.21 2.38c-.844.588-1.846 1.034-2.979 1.32-1.097.28-2.35.422-3.722.422h-.884c-.633 0-1.247.224-1.73.625a2.62 2.62 0 0 0-.9 1.58l-.067.356-1.12 6.968-.05.256c-.014.08-.037.121-.07.149a.19.19 0 0 1-.117.041h-5.46z"/>
        <path fill="#179BD7" d="M27.924 9.124c-.034.213-.072.43-.116.654-1.499 7.558-6.626 10.17-13.175 10.17H11.3c-.8 0-1.475.57-1.6 1.347L7.992 31.929l-.484 3.014a.843.843 0 0 0 .842.969h5.914c.7 0 1.295-.5 1.405-1.179l.058-.295 1.114-6.94.071-.381c.11-.68.705-1.18 1.406-1.18h.884c5.73 0 10.215-2.285 11.526-8.897.548-2.762.264-5.068-1.185-6.69a5.652 5.652 0 0 0-1.619-1.226"/>
        <path fill="#222D65" d="M26.356 8.51a11.87 11.87 0 0 0-1.457-.318c-.9-.143-1.884-.21-2.94-.21h-8.907c-.219 0-.427.048-.614.136-.41.194-.716.576-.79 1.044L9.753 20.95l-.054.344a1.61 1.61 0 0 1 1.6-1.347h3.334c6.549 0 11.676-2.612 13.175-10.169.045-.223.082-.441.116-.654a8.1 8.1 0 0 0-1.232-.51 12.05 12.05 0 0 0-.336-.104"/>
        <path fill="#253B80" d="M11.648 9.162c.074-.468.38-.85.79-1.042.188-.089.395-.137.614-.137h8.908c1.055 0 2.04.068 2.939.21a11.87 11.87 0 0 1 1.794.42 8.14 8.14 0 0 1 1.232.511c.446-2.793-.003-4.695-1.54-6.417C24.69.812 21.63 0 17.714 0H6.352c-.8 0-1.482.571-1.605 1.348L.012 30.82a.965.965 0 0 0 .963 1.11h7.017L9.753 20.95l1.895-11.789z"/>
    </g>
</svg>
