<svg xmlns="http://www.w3.org/2000/svg" xmlns:xlink="http://www.w3.org/1999/xlink" width="496" height="213" viewBox="0 0 496 213">
    <defs>
        <path id="a" d="M325.2 4.58c.974.147 58.392 106.473 100.228 85.555 91.028-45.514 78.572 68.736 49.382 94.683-31.728 28.205-155.041 52.239-217.897 55.505-62.855 3.264-231.865-11.428-254.214-75.094-12.745-36.311 27.78-148.289 115.735-154.16C205.71-.877 274.633-3.04 325.199 4.58z"/>
        <path id="c" d="M1.2 59.369c20.912-5.292 46.634-25.13 71.682-33.06.978-.31 3.167-1.511 4.274-1.938-4.353-8.186-8.922-16.245-13.59-24.252-1.503.494-3.487 1.74-4.909 2.136C39.037 7.712 20.024 13.931.617 19.79c.41 13.18.178 26.379.582 39.579"/>
        <path id="e" d="M76.513 59.665c-20.914-5.292-46.635-25.13-71.683-33.06-.98-.31-3.167-1.511-4.275-1.937C4.908 16.48 9.477 8.422 14.145.416c1.504.494 3.488 1.739 4.91 2.135 19.62 5.457 38.633 11.676 58.04 17.535-.411 13.18-.178 26.379-.582 39.579"/>
        <path id="g" d="M63.65 23.779c5.276 17.909-3.914 34.287-22.009 38.548-18.096 4.26-34.506-5.283-39.834-22.546C-3.521 22.518 6.274 5.663 23.816.953"/>
        <path id="i" d="M63.65 23.779c5.276 17.909-3.914 34.287-22.009 38.548-18.096 4.26-34.506-5.283-39.834-22.546C-3.521 22.518 6.274 5.663 23.816.953"/>
        <path id="k" d="M90.82 35.47c0 21.05-20.237 38.072-45.06 38.022C20.94 73.442.796 56.32.849 35.256.848 10.901.941.726 45.907.826c44.965.1 44.978 10.275 44.912 34.643z"/>
        <path id="m" d="M155.936 77.95c0 43.008-34.864 77.872-77.872 77.872-43.006 0-77.87-34.864-77.87-77.872C.194 34.944 35.058.08 78.064.08c43.008 0 77.872 34.864 77.872 77.87zm-28.08 0c0-27.498-22.292-49.79-49.791-49.79-27.498 0-49.79 22.293-49.79 49.79 0 27.5 22.291 49.791 49.79 49.791s49.79-22.291 49.79-49.79z"/>
        <path id="o" d="M97.871 28.913c-6.036 20.702-25.155 35.829-47.806 35.829-27.498 0-49.79-22.293-49.79-49.792 0-4.88.701-9.595 2.01-14.051 59.606 18.328 82.227 24.907 95.586 28.014z"/>
        <path id="q" d="M155.936 77.95c0 43.008-34.864 77.872-77.872 77.872-43.006 0-77.87-34.864-77.87-77.872C.194 34.944 35.058.08 78.064.08c43.008 0 77.872 34.864 77.872 77.87zm-28.08 0c0-27.498-22.292-49.79-49.791-49.79-27.498 0-49.79 22.293-49.79 49.79 0 27.5 22.291 49.791 49.79 49.791s49.79-22.291 49.79-49.79z"/>
        <path id="s" d="M97.871 28.913c-6.036 20.702-25.155 35.829-47.806 35.829-27.498 0-49.79-22.293-49.79-49.792 0-4.88.701-9.595 2.01-14.051 59.606 18.328 82.227 24.907 95.586 28.014z"/>
    </defs>
    <g fill="none" fill-rule="evenodd">
        <path fill="#1C272B" d="M137.188 63.767c84.304-5.629 97.117-57.137 172.966-45.709 67.997 10.244 71.83 65.299 114.274 44.077 91.028-45.514 78.572 68.736 49.382 94.683-31.728 28.205-155.041 52.239-217.897 55.505-62.855 3.264-231.865-11.428-254.214-75.094-12.745-36.311 47.535-67.59 135.488-73.462"/>
        <g transform="translate(-1 -28)">
            <path fill="#F99D78" d="M438.5 32l-2.01 5.49L431 39.5l5.49 2.009L438.5 47l2.008-5.492L446 39.5v-.001l-5.492-2.008L438.502 32z"/>
            <path fill="#7D728E" d="M33 140l-1.34 3.66L28 145l3.66 1.34L33 150l1.339-3.661L38 145v-.001l-3.661-1.339L33 140z"/>
            <path fill="#CDDCE6" d="M36.5 79l-2.01 5.49L29 86.499l5.49 2.01L36.5 94l2.008-5.492L44 86.5v-.002l-5.492-2.007L36.502 79z"/>
            <mask id="b" fill="#fff">
                <use xlink:href="#a"/>
            </mask>
            <g fill="#F99D78" mask="url(#b)">
                <path d="M88 163l-1.072 2.928L84 167l2.928 1.072L88 171l1.07-2.93L92 167l-2.93-1.072L88 163z"/>
            </g>
            <g fill="#7D728E" mask="url(#b)">
                <path d="M413 150l-1.34 3.66L408 155l3.66 1.34L413 160l1.339-3.661L418 155v-.001l-3.661-1.339L413 150z"/>
            </g>
            <g fill="#CDDCE6" mask="url(#b)">
                <path d="M471 105l-1.072 2.928L467 109l2.928 1.072L471 113l1.07-2.93L475 109l-2.93-1.072L471 105z"/>
            </g>
            <g mask="url(#b)">
                <g transform="translate(111 28.312)">
                    <g transform="translate(176 105)">
                        <mask id="d" fill="#fff">
                            <use xlink:href="#c"/>
                        </mask>
                        <use fill="#DBD1BF" xlink:href="#c"/>
                        <path stroke="#C4B8A7" stroke-width="2.922" d="M55.645-2.201c5.778 12.116 11.554 24.235 17.01 36.5M32.907 3.224c6.094 11.803 12.301 23.569 17.956 35.59M11.85 12.638C19.306 23.577 25.28 35.456 32.57 46.87" mask="url(#d)"/>
                    </g>
                    <path fill="#DBD1BF" d="M246.377 100.179c-1.275.41-3.579 1.642-4.73 2.549-2.742 2.158-4.293 4.063-2.434 7.552 2.807 5.262 6.342 11.253 9.49 16.253 2.086 3.313 4.493 3.554 7.874 2.627 1.422-.39 3.463-1.547 4.505-2.42 6.599-5.518 10.077-13.011 5.668-21.113.51-.266.405-.201 0 0-4.409-8.1-12.301-8.051-20.373-5.448"/>
                    <path fill="#DBD1BF" d="M244.496 105.28c-1.904 1.126-4.26.758-5.484-1.108-1.226-1.867-.433-4 1.38-5.209 1.812-1.208 4.16-.859 5.394 1.038 1.235 1.896.613 4.152-1.29 5.278"/>
                    <g transform="translate(16 114)">
                        <mask id="f" fill="#fff">
                            <use xlink:href="#e"/>
                        </mask>
                        <use fill="#DBD1BF" xlink:href="#e"/>
                        <path stroke="#C4B8A7" stroke-width="2.922" d="M22.067-1.904C16.287 10.21 10.512 22.33 5.057 34.595M44.805 3.52C38.71 15.321 32.504 27.087 26.848 39.11M65.86 12.934C58.408 23.872 52.433 35.75 45.144 47.166" mask="url(#f)"/>
                    </g>
                    <path fill="#DBD1BF" d="M23.335 109.475c1.275.41 3.579 1.642 4.73 2.549 2.741 2.157 4.293 4.064 2.434 7.552-2.807 5.262-6.342 11.252-9.49 16.252-2.087 3.314-4.494 3.554-7.875 2.627-1.422-.389-3.463-1.547-4.505-2.419-6.598-5.518-10.076-13.011-5.668-21.114-.509-.264-.405-.2 0 0 4.41-8.1 12.301-8.05 20.374-5.447"/>
                    <path fill="#DBD1BF" d="M25.216 114.575c1.904 1.127 4.26.76 5.484-1.107 1.226-1.867.433-4-1.38-5.209-1.812-1.208-4.16-.859-5.395 1.038-1.234 1.896-.613 4.152 1.29 5.278"/>
                    <path fill="#A9BBBF" d="M153.65 78.78c5.275 17.908-3.914 34.286-22.01 38.547-18.095 4.26-34.505-5.283-39.833-22.546-5.328-17.263 4.467-34.118 22.01-38.828 17.541-4.71 34.558 4.917 39.833 22.826"/>
                    <g transform="translate(90 55)">
                        <mask id="h" fill="#fff">
                            <use xlink:href="#g"/>
                        </mask>
                        <path fill="#FFF" d="M-1.086 59.945c-1.472-1.07-2.97-2.104-4.458-3.149 21.24-24.382 40.643-50.285 60.557-75.74 1.526 1.201 3.056 2.398 4.58 3.6-19.845 25.386-38.18 52.108-60.68 75.29" mask="url(#h)"/>
                    </g>
                    <g transform="translate(90 55)">
                        <mask id="j" fill="#fff">
                            <use xlink:href="#i"/>
                        </mask>
                        <path fill="#FFF" d="M10.377 68.762a199.825 199.825 0 0 0-4.207-3.487C30.035 43.47 47.451 15.908 67.214-9.421l4.644 3.66C52.063 19.61 34.62 47.252 10.377 68.762" mask="url(#j)"/>
                    </g>
                    <path fill="#DBD1BF" d="M99.82 5.538c1.221-.306 2.443-.609 3.664-.915 3.226 12.831 6.451 25.663 9.68 38.494-1.22.311-2.444.61-3.666.916-3.227-12.831-6.453-25.663-9.678-38.495"/>
                    <path fill="#F4815B" d="M109.084 5.596c1 3.976-1.157 7.608-5.14 8.604-3.981.994-7.602-1.198-8.602-5.173-.998-3.976 1.157-7.61 5.14-8.602 3.983-.994 7.602 1.195 8.602 5.17"/>
                    <path fill="#BAB099" d="M81.343 106.91c-1.343.238-2.688.809-4.042.941-1.353.132-2.39-.104-2.97-1.49-1.129-2.687-2.692-5.857-3.485-8.602-1.086-3.757.552-5.611 3.702-7.242.01-.004.013.011 0 0 2.268 5.471 4.484 10.939 6.795 16.393M175.964 84.821c1.33-.506 2.005-1.307 1.795-2.902-.408-3.095-.67-7.073-1.35-10.062-.932-4.092-3.23-5.114-7.052-5.282.836 6.38 1.651 12.736 2.515 19.116 1.346-.396 2.764-.364 4.092-.87z"/>
                    <path fill="#E8E0CB" d="M79.63 218v-64.724c0-27.83 22.559-50.388 50.39-50.388h4.794c27.828 0 50.389 22.559 50.389 50.388V218H79.63z"/>
                    <path fill="#1C272B" fill-opacity=".25" d="M166.897 77.874c7.225 26.133-7.84 50.38-34.303 53.874-26.462 3.492-47.606-9-54.92-34.101-7.314-25.1 7.23-48.341 33.14-54.303 25.912-5.962 48.858 8.398 56.083 34.53"/>
                    <circle cx="122.5" cy="80.188" r="50.5" fill="#E8E0CB"/>
                    <g transform="rotate(-16 260.288 -217.221)">
                        <mask id="l" fill="#fff">
                            <use xlink:href="#k"/>
                        </mask>
                        <use fill="#8FA4AA" fill-rule="nonzero" xlink:href="#k"/>
                        <path fill="#3D545E" fill-opacity=".221" d="M-10.468 25.215a40.852 40.852 0 0 1-.134-3.313c0-24.538 21.953-44.43 49.034-44.43 1.185 0 2.36.038 3.523.113 1.245-.075 2.5-.113 3.766-.113 31.106 0 56.323 22.974 56.323 51.314S76.827 80.1 45.721 80.1s-56.323-22.974-56.323-51.314c0-1.2.045-2.391.134-3.57zm0 0c1.87 22.991 23.05 41.118 48.9 41.118 27.081 0 49.034-19.892 49.034-44.43 0-23.466-20.075-42.682-45.511-44.318C13.9-20.728-8.541-.325-10.468 25.215z" mask="url(#l)"/>
                        <ellipse cx="14.578" cy="14.643" fill="#FFF" mask="url(#l)" opacity=".3" rx="3.976" ry="3.379"/>
                        <ellipse cx="27.83" cy="23.154" fill="#CDDCE6" mask="url(#l)" opacity=".3" rx="9.277" ry="6.884"/>
                    </g>
                    <path fill="#F4815B" d="M165.692 159.306l-14.283.39a3.293 3.293 0 0 1-3.38-3.202l-.388-14.284a3.291 3.291 0 0 1 3.2-3.38l14.285-.388a3.292 3.292 0 0 1 3.38 3.201l.387 14.284a3.292 3.292 0 0 1-3.2 3.38"/>
                </g>
            </g>
        </g>
        <path fill="#1C272B" fill-opacity=".246" d="M136.825 107.345c2.028 3.514-1.862 9.558-8.691 13.5-6.828 3.942-14.008 4.29-16.037.776-2.028-3.513 1.863-9.557 8.69-13.5 6.83-3.942 14.009-4.29 16.038-.776M357.933 98.965c-2.03 3.514 1.169 9.158 7.144 12.607 5.973 3.45 12.46 3.397 14.49-.116 2.028-3.513-1.17-9.158-7.145-12.607-5.973-3.449-12.461-3.398-14.49.116"/>
        <path fill="#766991" d="M151.805 74.378c0 27.498-22.292 49.79-49.79 49.79-27.5 0-49.791-22.292-49.791-49.79 0-27.498 22.292-49.79 49.79-49.79 27.499 0 49.79 22.292 49.79 49.79"/>
        <path fill="#645B7F" d="M116.72 121.948c-26.271 8.122-54.152-6.592-62.274-32.863.24.78 24.985 13.634 51.256 5.512 26.272-8.122 44.123-34.145 43.882-34.924 8.122 26.27-6.592 54.153-32.863 62.275"/>
        <path stroke="#473F54" stroke-width="4.897" d="M171.473 53.099c1.452 4.741-28.468 18.111-66.829 29.864-38.36 11.752-70.636 17.436-72.088 12.695-1.453-4.742 28.467-18.112 66.828-29.865 38.361-11.752 70.636-17.435 72.09-12.694z"/>
        <path fill="#766991" d="M94.316 74.378c-19.123 0-34.392 13.788-40.465 12.64-.556-2.317-1.437-4.414-1.627-12.64-.636-27.495 22.292-49.79 49.79-49.79 22.013 0 40.689 14.285 47.265 34.09 1.638 4.935-16.029.932-16.029 6.418-7.624 6.188-20.602 9.282-38.934 9.282z"/>
        <path stroke="#C6BAE5" stroke-dasharray="47.342,6.53,1.632,97.94799999999999" stroke-linecap="round" stroke-width="3.265" d="M61.324 83.163C56.471 60.69 70.756 38.54 93.23 33.687"/>
        <g>
            <path fill="#475F89" d="M386.065 112.742c-27.498 0-49.79-22.293-49.79-49.791 0-27.498 22.292-49.79 49.79-49.79 27.498 0 49.79 22.291 49.79 49.79 0 27.498-22.292 49.79-49.79 49.79z"/>
            <path fill="#425B7A" d="M336.429 59.026c-.063.815 18.174 21.907 45.587 24.074 27.413 2.168 53.62-15.41 53.685-16.226-2.167 27.413-26.147 47.88-53.56 45.712-27.413-2.167-47.88-26.146-45.712-53.56z"/>
            <g transform="translate(308 -15)">
                <mask id="n" fill="#fff">
                    <use xlink:href="#m"/>
                </mask>
                <path stroke="#394E6B" stroke-width="4.897" d="M147.895 97.975c-1.367 4.767-33.739-.334-72.306-11.394C37.023 75.523 6.868 62.694 8.234 57.927c1.367-4.766 33.738.334 72.306 11.393 38.566 11.059 68.722 23.888 67.355 28.655z" mask="url(#n)"/>
            </g>
            <g transform="translate(336 48)">
                <mask id="p" fill="#fff">
                    <use xlink:href="#o"/>
                </mask>
                <path stroke="#394E6B" stroke-width="4.897" d="M119.895 34.975c-1.367 4.767-33.739-.334-72.305-11.394C9.023 12.523-21.133-.306-19.766-5.073-18.4-9.839 13.972-4.739 52.54 6.32c38.566 11.059 68.722 23.888 67.356 28.655z" mask="url(#p)"/>
            </g>
            <g transform="matrix(-1 0 0 1 464 -15)">
                <mask id="r" fill="#fff">
                    <use xlink:href="#q"/>
                </mask>
                <path stroke="#394E6B" stroke-width="4.897" d="M147.895 97.975c-1.367 4.767-33.739-.334-72.306-11.394C37.023 75.523 6.868 62.694 8.234 57.927c1.367-4.766 33.738.334 72.306 11.393 38.566 11.059 68.722 23.888 67.355 28.655z" mask="url(#r)"/>
            </g>
            <g transform="matrix(-1 0 0 1 436 48)">
                <mask id="t" fill="#fff">
                    <use xlink:href="#s"/>
                </mask>
                <path stroke="#394E6B" stroke-width="4.897" d="M119.895 34.975c-1.367 4.767-33.739-.334-72.305-11.394C9.023 12.523-21.133-.306-19.766-5.073-18.4-9.839 13.972-4.739 52.54 6.32c38.566 11.059 68.722 23.888 67.356 28.655z" mask="url(#t)"/>
            </g>
            <path stroke="#ABD9FF" stroke-dasharray="29.385,6.53,16.325,97.94799999999999" stroke-linecap="round" stroke-width="3.265" d="M348.231 45.586c9.59-20.895 34.304-30.059 55.198-20.469"/>
        </g>
    </g>
</svg>
