<svg xmlns="http://www.w3.org/2000/svg" xmlns:xlink="http://www.w3.org/1999/xlink" width="65" height="65" viewBox="0 0 65 65">
    <defs>
        <circle id="a" cx="29.5" cy="29.5" r="29.5"/>
        <path id="c" d="M23.794 9.934c0 5.896-5.302 10.664-11.805 10.65C5.486 20.57.209 15.774.222 9.874c0-6.82.025-9.67 11.805-9.643C23.807.26 23.811 3.11 23.794 9.934z"/>
    </defs>
    <g fill="none" fill-rule="evenodd" transform="translate(3 3)">
        <mask id="b" fill="#fff">
            <use xlink:href="#a"/>
        </mask>
        <use fill="#1C272B" xlink:href="#a"/>
        <circle cx="29.5" cy="29.5" r="30.75" stroke="#FFF" stroke-width="2.5"/>
        <g mask="url(#b)">
            <path fill="#E8E0CB" d="M48.5 67.563h-38V49.37c0-8.178 6.622-14.807 14.791-14.807h8.418c8.169 0 14.791 6.629 14.791 14.807v18.193z"/>
            <path fill="#020303" fill-opacity=".118" d="M29.422 39.97c-7.39 0-13.381-6.053-13.381-13.52s5.99-13.52 13.38-13.52c7.392 0 13.383 6.053 13.383 13.52s-5.991 13.52-13.382 13.52z"/>
            <path fill="#F58F6C" d="M25.189 48.313h-3.01a.827.827 0 0 1-.822-.833v-3.05c0-.46.368-.832.821-.832h3.01c.454 0 .822.373.822.832v3.05c0 .46-.368.833-.821.833"/>
            <path fill="#BCB199" d="M17.867 47.578v19.984c-.26-.104-.518-.184-.775-.294v-19.69c0-.245.173-.444.388-.444.213 0 .387.199.387.444M40.357 47.578v19.984c.26-.104.518-.184.776-.294v-19.69c0-.245-.174-.444-.388-.444-.214 0-.388.199-.388.444"/>
            <g>
                <path fill="#BCB199" d="M41.407 29.905h1.062c.326 0 .602-.251.643-.585l.319-2.596c.11-.888-.56-1.673-1.426-1.673l-.598 4.854zM16.934 29.905h-1.061a.656.656 0 0 1-.643-.585l-.32-2.596c-.109-.888.56-1.673 1.427-1.673l.597 4.854z"/>
                <path fill="#E8E0CB" d="M42.34 25.577c0 7.514-5.896 13.605-13.17 13.605-7.272 0-13.168-6.091-13.168-13.605s5.896-13.605 13.169-13.605c7.273 0 13.168 6.09 13.168 13.605"/>
                <path fill="#E7DFCA" d="M28.847 13.469h.647v-6.46h-.647z"/>
                <path fill="#F69D79" d="M29.17 9.107c-1 0-1.81-.838-1.81-1.872 0-1.033.81-1.871 1.81-1.871 1.001 0 1.812.838 1.812 1.871 0 1.034-.81 1.872-1.811 1.872z"/>
                <g transform="translate(17.582 16.655)">
                    <mask id="d" fill="#fff">
                        <use xlink:href="#c"/>
                    </mask>
                    <use fill="#8FA4AA" fill-rule="nonzero" xlink:href="#c"/>
                    <path fill="#3D545E" fill-opacity=".221" d="M-2.742 7.062a12.228 12.228 0 0 1-.036-.928C-2.778-.738 2.974-6.31 10.07-6.31c.31 0 .618.011.923.032.326-.021.655-.032.986-.032 8.15 0 14.756 6.435 14.756 14.372 0 7.938-6.606 14.372-14.756 14.372S-2.778 16-2.778 8.062c0-.336.012-.67.036-1zm0 0c.49 6.44 6.038 11.517 12.81 11.517 7.096 0 12.847-5.572 12.847-12.445 0-6.572-5.26-11.954-11.923-12.412-7.35.473-13.23 6.187-13.734 13.34z" mask="url(#d)"/>
                    <ellipse cx="3.819" cy="4.101" fill="#FFF" mask="url(#d)" opacity=".3" rx="1.042" ry="1"/>
                    <ellipse cx="7.291" cy="6.485" fill="#CDDCE6" mask="url(#d)" opacity=".3" rx="2.43" ry="1.928"/>
                </g>
            </g>
        </g>
    </g>
</svg>
