<svg xmlns="http://www.w3.org/2000/svg" xmlns:xlink="http://www.w3.org/1999/xlink" width="65" height="65" viewBox="0 0 65 65">
    <defs>
        <circle id="a" cx="29.5" cy="29.5" r="29.5"/>
    </defs>
    <g fill="none" fill-rule="evenodd">
        <g transform="translate(3 3)">
            <use fill="#1C272B" xlink:href="#a"/>
            <circle cx="29.5" cy="29.5" r="30.75" stroke="#FFF" stroke-width="2.5"/>
        </g>
        <path fill="#F26F40" d="M13.065 44.483l1.423.83L34.393 33.78l-1.423-.83z"/>
        <path fill="#D44F27" d="M32.97 32.951l1.423.83-.065-22.951-1.423-.83zM13.065 44.483l1.423.83-.065-22.952-1.423-.83z"/>
        <path fill="#F3815B" d="M32.905 10L13 21.532l1.423.83 19.905-11.533z"/>
        <path fill="#F26F40" d="M30.343 17.286l.04 14.2-12.315 7.134-.04-14.2z"/>
        <path fill="#D44F27" d="M18.068 38.62l-1.423-.83-.04-14.2 1.423.83z"/>
        <path fill="#F3815B" d="M18.028 24.42l-1.423-.83 12.316-7.134 1.422.83z"/>
        <path fill="#F26F40" d="M37.998 35.813L18.093 47.345l-1.423-.83 19.905-11.532z"/>
        <path fill="#D44F27" d="M37.933 12.862l.065 22.95-1.423-.829-.064-22.951zM18.093 47.345l-1.423-.83-.065-22.951 1.423.83z"/>
        <path fill="#F3815B" d="M18.028 24.393l-1.423-.83 19.906-11.53 1.422.828z"/>
        <path fill="#F26F40" d="M33.977 19.393l.04 14.2L21.7 40.729l-.04-14.2z"/>
        <path fill="#D44F27" d="M21.701 40.728l-1.422-.83-.04-14.2 1.422.83z"/>
        <path fill="#F3815B" d="M21.661 26.528l-1.423-.83 12.316-7.134 1.423.83z"/>
        <path fill="#F26F40" d="M41.63 37.947L21.725 49.479l-1.423-.83 19.905-11.532z"/>
        <path fill="#D44F27" d="M41.565 14.996l.065 22.95-1.423-.829-.065-22.951zM21.725 49.479l-1.423-.83-.065-22.951 1.423.83z"/>
        <path fill="#F3815B" d="M21.66 26.527l-1.423-.83 19.905-11.53 1.423.828z"/>
        <path fill="#F26F40" d="M37.605 21.502l.04 14.2-12.315 7.134-.04-14.2z"/>
        <path fill="#D44F27" d="M25.33 42.836l-1.423-.83-.04-14.2 1.422.83z"/>
        <path fill="#F3815B" d="M25.29 28.636l-1.423-.83 12.315-7.134 1.423.83z"/>
        <path fill="#F26F40" d="M45.262 40.054L25.356 51.587l-1.422-.83 19.905-11.532z"/>
        <path fill="#D44F27" d="M45.197 17.103l.065 22.951-1.423-.83-.065-22.95zM25.356 51.586l-1.422-.83-.065-22.95 1.423.83z"/>
        <path fill="#F3815B" d="M25.292 28.635l-1.423-.83 19.905-11.531 1.423.83z"/>
        <path fill="#F26F40" d="M41.241 23.604l.04 14.2-12.315 7.134-.04-14.2z"/>
        <path fill="#D44F27" d="M28.966 44.938l-1.423-.83-.04-14.2 1.423.83z"/>
        <path fill="#F3815B" d="M28.926 30.738l-1.423-.83 12.315-7.134 1.423.83z"/>
        <path fill="#F26F40" d="M48.91 42.166L29.003 53.697l-1.423-.83 19.906-11.531z"/>
        <path fill="#D44F27" d="M48.844 19.214l.065 22.952-1.422-.83-.065-22.951zM29.004 53.697l-1.423-.83-.065-22.95 1.423.83z"/>
        <path fill="#F3815B" d="M28.94 30.746l-1.424-.83 19.906-11.531 1.422.83z"/>
        <path fill="#F26F40" d="M44.895 25.774l.04 14.2-12.315 7.135-.04-14.2z"/>
        <path fill="#D44F27" d="M32.62 47.109l-1.423-.83-.04-14.2 1.423.83z"/>
        <path fill="#F3815B" d="M32.58 32.909l-1.423-.83 12.315-7.135 1.423.83z"/>
        <path fill="#F26F40" d="M31.229 54.99l1.422.83 19.906-11.532-1.423-.83z"/>
        <path fill="#D44F27" d="M51.134 43.459l1.423.83-.065-22.952-1.423-.83zM31.229 54.99l1.422.83-.064-22.951-1.423-.83z"/>
        <path fill="#F3815B" d="M32.587 32.869l-1.423-.83 19.905-11.531 1.423.829z"/>
        <path fill="#F26F40" d="M48.842 27.995l.04 14.2-12.316 7.134-.04-14.2z"/>
        <path fill="#D44F27" d="M36.566 49.33l-1.422-.83-.04-14.2 1.422.83z"/>
        <path fill="#F3815B" d="M36.526 35.13l-1.423-.83 12.316-7.135 1.423.83z"/>
        <path fill="#D44F27" d="M27.581 52.868l-.078-22.952-2.211-1.281.064 22.94zM31.23 54.99l-.078-22.951-2.212-1.282.065 22.94zM23.947 50.76l-.078-22.952-2.211-1.281.064 22.94zM20.318 48.641L20.24 25.69l-2.212-1.282.065 22.94zM16.702 46.553l-.097-22.99-2.182-1.202.054 22.9z"/>
        <path fill="#F8AC85" d="M14.423 22.361L34.328 10.83l2.183 1.203-19.906 11.532zM18.028 24.393l19.905-11.532 2.21 1.305L20.25 25.687zM21.661 26.528l19.904-11.533 2.209 1.279-19.907 11.532zM25.29 28.636l19.907-11.533 2.224 1.282-19.918 11.524zM28.926 30.738l19.918-11.524 2.225 1.294-19.905 11.531z"/>
    </g>
</svg>
