<svg xmlns="http://www.w3.org/2000/svg" width="150" height="43" viewBox="0 0 150 43">
    <g fill="none" fill-rule="nonzero">
        <path fill="#95BF47" d="M32.17 8.065a.378.378 0 0 0-.36-.326c-.15 0-3.355-.237-3.355-.237S26.24 5.307 25.97 5.07c-.24-.237-.719-.178-.898-.118-.03 0-.48.148-1.259.385-.748-2.164-2.066-4.121-4.373-4.121h-.21C18.602.386 17.763 0 17.074 0c-5.391 0-7.967 6.671-8.776 10.051-2.097.653-3.594 1.098-3.774 1.157-1.168.356-1.198.385-1.348 1.482C3.055 13.52 0 36.944 0 36.944l23.812 4.418 12.91-2.757c0-.03-4.523-30.333-4.553-30.54zm-9.675-2.372c-.6.178-1.288.385-2.007.623V5.87c0-1.305-.18-2.372-.48-3.232 1.199.178 1.977 1.512 2.487 3.054zM18.51 2.935c.33.83.539 1.987.539 3.588v.237c-1.318.415-2.726.83-4.163 1.275.808-3.054 2.336-4.536 3.624-5.1zm-1.588-1.512c.24 0 .48.09.69.237-1.738.801-3.565 2.817-4.344 6.88-1.138.355-2.246.681-3.295 1.007.899-3.083 3.085-8.124 6.95-8.124z"/>
        <path fill="#5E8E3E" d="M31.81 7.71c-.15 0-3.355-.238-3.355-.238S26.24 5.278 25.97 5.04a.483.483 0 0 0-.33-.149l-1.797 36.47 12.91-2.757L32.2 8.065a.517.517 0 0 0-.39-.356z"/>
        <path fill="#FFF" d="M19.44 14.766l-1.588 4.685s-1.408-.742-3.115-.742c-2.516 0-2.636 1.572-2.636 1.957 0 2.135 5.631 2.965 5.631 7.976 0 3.944-2.516 6.494-5.93 6.494-4.104 0-6.17-2.52-6.17-2.52l1.107-3.588s2.157 1.838 3.954 1.838c1.198 0 1.678-.92 1.678-1.601 0-2.787-4.613-2.906-4.613-7.502 0-3.854 2.785-7.59 8.446-7.59 2.157-.03 3.235.593 3.235.593z"/>
        <path fill="#000" d="M51.788 23.572c-1.288-.682-1.947-1.275-1.947-2.075 0-1.009.929-1.66 2.367-1.66 1.677 0 3.175.681 3.175.681l1.168-3.558s-1.078-.83-4.253-.83c-4.433 0-7.519 2.52-7.519 6.048 0 2.017 1.438 3.529 3.355 4.626 1.558.86 2.097 1.482 2.097 2.402 0 .948-.779 1.72-2.217 1.72-2.126 0-4.163-1.098-4.163-1.098l-1.258 3.558s1.857 1.246 5.002 1.246c4.553 0 7.848-2.224 7.848-6.227-.03-2.194-1.678-3.706-3.655-4.833zM69.94 16.07c-2.247 0-4.014 1.068-5.362 2.669l-.06-.03 1.947-10.08h-5.062l-4.942 25.676h5.062L63.2 25.53c.66-3.32 2.397-5.367 4.014-5.367 1.138 0 1.588.771 1.588 1.868 0 .682-.06 1.542-.21 2.224l-1.917 10.051h5.062l1.977-10.377c.21-1.097.36-2.402.36-3.291.03-2.876-1.468-4.567-4.134-4.567zM85.575 16.07c-6.11 0-10.154 5.456-10.154 11.534 0 3.885 2.426 7.028 6.98 7.028 5.99 0 10.033-5.308 10.033-11.534.03-3.618-2.096-7.028-6.859-7.028zM83.09 30.777c-1.737 0-2.456-1.453-2.456-3.291 0-2.876 1.498-7.561 4.253-7.561 1.797 0 2.397 1.542 2.397 3.024 0 3.084-1.528 7.828-4.194 7.828zM105.434 16.07c-3.415 0-5.362 2.995-5.362 2.995h-.06l.3-2.698h-4.493c-.21 1.809-.629 4.596-1.018 6.671l-3.535 18.384h5.062l1.408-7.443h.12s1.048.653 2.965.653c5.96 0 9.855-6.05 9.855-12.157 0-3.38-1.528-6.405-5.242-6.405zm-4.852 14.766c-1.318 0-2.097-.74-2.097-.74l.839-4.686c.599-3.143 2.246-5.218 4.013-5.218 1.558 0 2.037 1.423 2.037 2.757 0 3.262-1.947 7.887-4.792 7.887zM117.924 8.865a2.881 2.881 0 0 0-2.905 2.906c0 1.483.958 2.52 2.396 2.52h.06c1.587 0 2.935-1.067 2.965-2.905 0-1.483-.988-2.52-2.516-2.52zM110.825 34.276h5.062l3.445-17.82h-5.092zM132.242 16.426h-3.535l.18-.83c.3-1.72 1.318-3.232 3.025-3.232.899 0 1.618.267 1.618.267l.988-3.943s-.869-.445-2.756-.445c-1.797 0-3.594.504-4.972 1.66-1.737 1.453-2.546 3.558-2.935 5.693l-.15.83h-2.366l-.749 3.796h2.366l-2.695 14.054h5.062l2.695-14.054h3.505l.719-3.796zM144.462 16.456s-3.175 7.917-4.582 12.246h-.06c-.09-1.394-1.258-12.246-1.258-12.246h-5.332l3.055 16.337c.06.356.03.593-.12.83-.599 1.127-1.587 2.224-2.755 3.025-.959.682-2.037 1.127-2.876 1.423l1.408 4.27c1.019-.208 3.175-1.068 4.972-2.728 2.307-2.135 4.463-5.456 6.65-9.963l6.2-13.194h-5.302z"/>
    </g>
</svg>
