<svg xmlns="http://www.w3.org/2000/svg" xmlns:xlink="http://www.w3.org/1999/xlink" width="150" height="32" viewBox="0 0 150 32">
    <defs>
        <path id="a" d="M0 31.834h149.624V0H0z"/>
    </defs>
    <g fill="none" fill-rule="evenodd">
        <path fill="#653C88" d="M53.398.665v8.602c-.668-.249-1.17-.374-1.504-.374-.71 0-1.295.25-1.796.79-.502.54-.71 1.122-.71 1.787 0 .54.292 1.33.835 2.369.543 1.039 1.128 2.202 1.671 3.532.543 1.33.836 2.577.836 3.824 0 2.992-1.086 5.486-3.26 7.48-2.172 1.995-4.804 3.034-7.854 3.034-1.296 0-2.633-.332-4.053-.997v-8.728c.835.499 1.63.707 2.298.707.71 0 1.337-.208 1.922-.665.585-.457.877-.998.877-1.662 0-.5-.292-1.206-.835-2.203-.544-.997-1.087-2.203-1.63-3.574-.543-1.371-.836-2.784-.836-4.114 0-2.826 1.003-5.237 3.05-7.315C44.458 1.08 46.88.041 49.68.041c1.296 0 2.508.208 3.72.624"/>
        <mask id="b" fill="#fff">
            <use xlink:href="#a"/>
        </mask>
        <path fill="#653C88" d="M56.49 31.003h9.15V.79h-9.15zM95.056.79l-7.981 13.714 7.98 16.499H84.903l-6.894-16.665L85.821.79h9.235zM68.732 31.003h9.15V.79h-9.15v30.213zM124.47.79l-7.98 13.714 7.98 16.499h-10.153l-6.894-16.665L115.237.79h9.234zM98.107 31.003h9.15V.79h-9.15v30.213zM139.137 15.875v7.938h-2.466v7.19h-9.15V11.512c0-3.491 1.044-6.234 3.092-8.354 2.047-2.078 4.805-3.116 8.273-3.116 3.175 0 5.766 1.122 7.772 3.324 2.005 2.203 2.966 4.946 2.966 8.146v19.49h-9.15v-19.49c0-.624-.126-1.206-.419-1.663-.292-.498-.752-.748-1.336-.79-.627 0-1.128.25-1.463.707-.334.457-.543 1.04-.543 1.746v4.363h2.424z" mask="url(#b)"/>
        <path fill="#653C87" d="M27.66 7.813c-.125.042-.209.125-.334.166-1.462.748-2.59 1.496-3.426 2.244-.878.79-1.504 1.621-1.797 2.535-.25.707-.376 1.497-.46 2.286-.041.831 0 1.995.168 3.533.125 1.205.209 2.12.167 2.784a6.83 6.83 0 0 1-2.047 4.488c-.794.79-1.88 1.58-3.26 2.328l-4.805-1.621-.543-.208c1.504-.706 2.674-1.454 3.51-2.203.836-.748 1.42-1.62 1.755-2.535.292-.872.334-2.244.083-4.155a7.89 7.89 0 0 1-.125-1.164c-.084-1.122-.125-2.036-.042-2.785a7.328 7.328 0 0 1 .418-2.036c.334-.997.92-1.912 1.797-2.784.835-.873 2.047-1.746 3.551-2.66l.084.042 5.348 1.828-.042-.083zM5.515 24.436l-.585-.207c1.505-.707 2.674-1.455 3.51-2.203.836-.748 1.42-1.62 1.755-2.535.293-.873.334-2.286.084-4.156-.084-.54-.126-.914-.126-1.164-.083-1.122-.125-2.036-.042-2.784a7.328 7.328 0 0 1 .418-2.036c.335-.998.92-1.912 1.797-2.785.836-.872 2.047-1.745 3.551-2.66l.084.042 5.39 1.787h-.042c-.125.042-.209.125-.334.166-1.462.748-2.59 1.496-3.426 2.244-.878.79-1.504 1.621-1.797 2.536-.25.706-.376 1.496-.46 2.285-.041.831 0 1.995.168 3.533.125 1.205.209 2.12.167 2.826a6.83 6.83 0 0 1-2.047 4.488c-.794.79-1.88 1.58-3.26 2.327l-4.805-1.704zM16.003 0C7.145 0 0 7.148 0 15.917c0 8.81 7.187 15.917 16.003 15.917 8.858 0 16.003-7.148 16.003-15.917C32.047 7.107 24.86 0 16.003 0z" mask="url(#b)"/>
    </g>
</svg>
