<?xml version="1.0" encoding="UTF-8"?>
<svg width="46px" height="84px" viewBox="0 0 46 84" version="1.1" xmlns="http://www.w3.org/2000/svg" xmlns:xlink="http://www.w3.org/1999/xlink">
    <!-- Generator: Sketch 49.1 (51147) - http://www.bohemiancoding.com/sketch -->
    <title>Spaceman Left 1 Copy</title>
    <desc>Created with Sketch.</desc>
    <defs>
        <path d="M5.62760943,24.2204429 L11.1940993,18.8968627 C11.6945875,18.4201414 11.95867,17.7864368 11.9863468,17.1434979 C12.7220875,17.0846292 13.4416835,16.7845141 14.0148232,16.2408441 L16.1862963,14.1735127 C16.8978199,13.4959452 17.2380135,12.5725141 17.2091835,11.6583173 C18.0994529,11.7518147 19.023165,11.4724768 19.7185438,10.8122236 L21.4183586,9.19391066 C22.6741919,7.9992217 22.7226263,5.99537627 21.5279125,4.74412716 L18.326633,1.38745519 C17.130766,0.135051795 15.1265067,0.0865716635 13.8718266,1.28126062 L12.1708586,2.90072787 C11.4754798,3.56098109 11.1525842,4.46940641 11.2033249,5.36282598 C10.2899916,5.29010578 9.35013468,5.58560373 8.63861111,6.26317128 L6.46713805,8.32934831 C5.91590909,8.85454974 5.58724747,9.52865443 5.48,10.230462 C4.80653199,10.2050677 4.12383838,10.4359255 3.6002862,10.9345782 L0.209882155,14.1619699 L5.62760943,24.2204429 Z" id="path-1"></path>
        <path d="M12.0797559,0.394766785 C5.72563131,0.711041929 0.503947811,5.83493012 0.0553535354,12.1835188 C-0.139537037,14.9434234 0.555841751,17.5336476 1.8797138,19.6979392 L23.3545791,19.9541913 C24.6150253,18.0115232 25.362298,15.705254 25.3968939,13.2200702 C25.4949158,6.15928528 19.8107997,0.378606742 12.7313131,0.378606742 C12.515665,0.378606742 12.2977104,0.384378186 12.0797559,0.394766785" id="path-3"></path>
        <path d="M12.0797559,0.394766785 C5.72563131,0.711041929 0.503947811,5.83493012 0.0553535354,12.1835188 C-0.139537037,14.9434234 0.555841751,17.5336476 1.8797138,19.6979392 L23.3545791,19.9541913 C24.6150253,18.0115232 25.362298,15.705254 25.3968939,13.2200702 C25.4949158,6.15928528 19.8107997,0.378606742 12.7313131,0.378606742 C12.515665,0.378606742 12.2977104,0.384378186 12.0797559,0.394766785" id="path-5"></path>
        <path d="M12.0797559,0.394766785 C5.72563131,0.711041929 0.503947811,5.83493012 0.0553535354,12.1835188 C-0.139537037,14.9434234 0.555841751,17.5336476 1.8797138,19.6979392 L23.3545791,19.9541913 C24.6150253,18.0115232 25.362298,15.705254 25.3968939,13.2200702 C25.4949158,6.15928528 19.8107997,0.378606742 12.7313131,0.378606742 C12.515665,0.378606742 12.2977104,0.384378186 12.0797559,0.394766785" id="path-7"></path>
        <path d="M12.0797559,0.394766785 C5.72563131,0.711041929 0.503947811,5.83493012 0.0553535354,12.1835188 C-0.139537037,14.9434234 0.555841751,17.5336476 1.8797138,19.6979392 L23.3545791,19.9541913 C24.6150253,18.0115232 25.362298,15.705254 25.3968939,13.2200702 C25.4949158,6.15928528 19.8107997,0.378606742 12.7313131,0.378606742 C12.515665,0.378606742 12.2977104,0.384378186 12.0797559,0.394766785" id="path-9"></path>
        <path d="M12.0797559,0.394766785 C5.72563131,0.711041929 0.503947811,5.83493012 0.0553535354,12.1835188 C-0.139537037,14.9434234 0.555841751,17.5336476 1.8797138,19.6979392 L23.3545791,19.9541913 C24.6150253,18.0115232 25.362298,15.705254 25.3968939,13.2200702 C25.4949158,6.15928528 19.8107997,0.378606742 12.7313131,0.378606742 C12.515665,0.378606742 12.2977104,0.384378186 12.0797559,0.394766785" id="path-11"></path>
        <path d="M12.0797559,0.394766785 C5.72563131,0.711041929 0.503947811,5.83493012 0.0553535354,12.1835188 C-0.139537037,14.9434234 0.555841751,17.5336476 1.8797138,19.6979392 L23.3545791,19.9541913 C24.6150253,18.0115232 25.362298,15.705254 25.3968939,13.2200702 C25.4949158,6.15928528 19.8107997,0.378606742 12.7313131,0.378606742 C12.515665,0.378606742 12.2977104,0.384378186 12.0797559,0.394766785" id="path-13"></path>
        <path d="M12.0797559,0.394766785 C5.72563131,0.711041929 0.503947811,5.83493012 0.0553535354,12.1835188 C-0.139537037,14.9434234 0.555841751,17.5336476 1.8797138,19.6979392 L23.3545791,19.9541913 C24.6150253,18.0115232 25.362298,15.705254 25.3968939,13.2200702 C25.4949158,6.15928528 19.8107997,0.378606742 12.7313131,0.378606742 C12.515665,0.378606742 12.2977104,0.384378186 12.0797559,0.394766785" id="path-15"></path>
        <path d="M12.0797559,0.394766785 C5.72563131,0.711041929 0.503947811,5.83493012 0.0553535354,12.1835188 C-0.139537037,14.9434234 0.555841751,17.5336476 1.8797138,19.6979392 L23.3545791,19.9541913 C24.6150253,18.0115232 25.362298,15.705254 25.3968939,13.2200702 C25.4949158,6.15928528 19.8107997,0.378606742 12.7313131,0.378606742 C12.515665,0.378606742 12.2977104,0.384378186 12.0797559,0.394766785" id="path-17"></path>
        <path d="M12.0797559,0.394766785 C5.72563131,0.711041929 0.503947811,5.83493012 0.0553535354,12.1835188 C-0.139537037,14.9434234 0.555841751,17.5336476 1.8797138,19.6979392 L23.3545791,19.9541913 C24.6150253,18.0115232 25.362298,15.705254 25.3968939,13.2200702 C25.4949158,6.15928528 19.8107997,0.378606742 12.7313131,0.378606742 C12.515665,0.378606742 12.2977104,0.384378186 12.0797559,0.394766785" id="path-19"></path>
        <path d="M12.0797559,0.394766785 C5.72563131,0.711041929 0.503947811,5.83493012 0.0553535354,12.1835188 C-0.139537037,14.9434234 0.555841751,17.5336476 1.8797138,19.6979392 L23.3545791,19.9541913 C24.6150253,18.0115232 25.362298,15.705254 25.3968939,13.2200702 C25.4949158,6.15928528 19.8107997,0.378606742 12.7313131,0.378606742 C12.515665,0.378606742 12.2977104,0.384378186 12.0797559,0.394766785" id="path-21"></path>
        <path d="M12.0797559,0.394766785 C5.72563131,0.711041929 0.503947811,5.83493012 0.0553535354,12.1835188 C-0.139537037,14.9434234 0.555841751,17.5336476 1.8797138,19.6979392 L23.3545791,19.9541913 C24.6150253,18.0115232 25.362298,15.705254 25.3968939,13.2200702 C25.4949158,6.15928528 19.8107997,0.378606742 12.7313131,0.378606742 C12.515665,0.378606742 12.2977104,0.384378186 12.0797559,0.394766785" id="path-23"></path>
        <path d="M12.0797559,0.394766785 C5.72563131,0.711041929 0.503947811,5.83493012 0.0553535354,12.1835188 C-0.139537037,14.9434234 0.555841751,17.5336476 1.8797138,19.6979392 L23.3545791,19.9541913 C24.6150253,18.0115232 25.362298,15.705254 25.3968939,13.2200702 C25.4949158,6.15928528 19.8107997,0.378606742 12.7313131,0.378606742 C12.515665,0.378606742 12.2977104,0.384378186 12.0797559,0.394766785" id="path-25"></path>
        <path d="M26.9470623,0.608310222 L30.2302189,49.3712425 C30.3363131,51.1511559 28.9870707,52.6852058 27.2088384,52.809869 L22.5822054,53.1284527 C20.995404,53.2392645 19.5665909,52.1830902 19.2044865,50.6351888 L15.398931,31.525937 L11.3881061,50.2565821 C10.9833333,51.7952491 9.52569024,52.8167947 7.94350168,52.6690458 L3.32609428,52.2396503 C1.55247475,52.0734327 0.245900673,50.508217 0.401582492,48.7329208 L4.95210438,1.23047191 L26.9470623,0.608310222 Z" id="path-27"></path>
        <path d="M12.0797559,0.394766785 C5.72563131,0.711041929 0.503947811,5.83493012 0.0553535354,12.1835188 C-0.139537037,14.9434234 0.555841751,17.5336476 1.8797138,19.6979392 L23.3545791,19.9541913 C24.6150253,18.0115232 25.362298,15.705254 25.3968939,13.2200702 C25.4949158,6.15928528 19.8107997,0.378606742 12.7313131,0.378606742 C12.515665,0.378606742 12.2977104,0.384378186 12.0797559,0.394766785" id="path-29"></path>
        <path d="M0.439368687,5.30049438 C0.482037037,9.57828885 3.98084175,13.007681 8.25459596,12.9649723 C9.42855219,12.9522751 10.5402357,12.6787087 11.5319865,12.1996788 C11.1664226,6.61638367 7.17981481,2.00615401 1.87279461,0.729510551 C0.954848485,2.0176969 0.422070707,3.59791833 0.439368687,5.30049438" id="path-31"></path>
        <path d="M3.49694444,22.2284933 L18.099899,21.8060236 C19.6451852,21.7610063 20.8733418,20.4589685 20.8295202,18.9122214 L20.3740067,3.13655577 C20.329032,1.58980871 19.0282239,0.360491093 17.4817845,0.40435407 L2.87882997,0.826823787 C1.33354377,0.871841052 0.105387205,2.17387887 0.150361953,3.72178021 L0.605875421,19.4962916 C0.64969697,21.0441929 1.95165825,22.2735106 3.49694444,22.2284933" id="path-33"></path>
    </defs>
    <g id="Symbols" stroke="none" stroke-width="1" fill="none" fill-rule="evenodd">
        <g id="Illustration/Spaceman---Point-Up" transform="translate(-1.000000, 0.000000)">
            <g id="Spaceman-Left-1-Copy" transform="translate(23.500000, 42.000000) scale(-1, 1) translate(-23.500000, -42.000000) ">
                <ellipse id="Oval-2" fill="#F4F4F4" cx="18" cy="79.5" rx="18" ry="4.5"></ellipse>
                <g id="Group" transform="translate(1.000000, 0.000000)">
                    <g id="arm" transform="translate(22.523569, 20.468622)">
                        <mask id="mask-2" fill="white">
                            <use xlink:href="#path-1"></use>
                        </mask>
                        <use id="Shape" fill="#E8E0CB" xlink:href="#path-1"></use>
                        <polygon id="Rectangle-path" fill="#BCB199" mask="url(#mask-2)" points="3.56349768 8.95859811 4.26369015 8.27928361 13.4431056 17.7408181 12.7429131 18.4201326"></polygon>
                        <polygon id="Rectangle-path" fill="#BCB199" mask="url(#mask-2)" points="9.1997802 3.96080547 9.89997267 3.28149097 19.0793881 12.7430255 18.3791957 13.42234"></polygon>
                    </g>
                    <polygon id="Rectangle-path" fill="#BCB199" points="5.54593808 2.50943737 12.6415809 14.1334895 11.6475287 14.7402865 4.55188588 3.11623432"></polygon>
                    <path d="M3.477178,5.00053836 C4.76825035,5.62405055 6.31229539,5.06647564 6.92535534,3.75582756 C7.53955481,2.44517947 6.99030779,0.877723028 5.70037496,0.255367628 C4.40930261,-0.368144567 2.86525757,0.189430345 2.2510581,1.50007843 C1.63799815,2.80956972 2.18610565,4.37702616 3.477178,5.00053836" id="Shape" fill="#F99D78"></path>
                    <path d="M5.95210438,29.7779611 C4.62707912,27.6125152 3.93285354,25.0234453 4.12774411,22.2623864 C4.57518519,15.914952 9.79802189,10.7922181 16.1521465,10.4747887 C23.5303114,10.1065706 29.5696128,16.0246095 29.4692845,23.3000921 C29.4346886,25.7829674 28.6862626,28.0903908 27.4258165,30.0330589" id="Shape" fill="#E0DACE"></path>
                    <g transform="translate(4.072391, 10.080022)" id="Clipped">
                        <g>
                            <mask id="mask-4" fill="white">
                                <use xlink:href="#path-3"></use>
                            </mask>
                            <g id="SVGID_137_"></g>
                            <rect id="Rectangle-path" fill="#BCB199" mask="url(#mask-4)" transform="translate(-5.183618, 25.321994) rotate(180.710502) translate(5.183618, -25.321994) " x="-5.72733903" y="19.6037796" width="1.08744119" height="11.4364295"></rect>
                        </g>
                        <g>
                            <mask id="mask-6" fill="white">
                                <use xlink:href="#path-5"></use>
                            </mask>
                            <g id="SVGID_137_"></g>
                        </g>
                        <g>
                            <mask id="mask-8" fill="white">
                                <use xlink:href="#path-7"></use>
                            </mask>
                            <g id="SVGID_137_"></g>
                            <rect id="Rectangle-path" fill="#BCB199" mask="url(#mask-8)" transform="translate(11.964631, 47.794336) rotate(180.676126) translate(-11.964631, -47.794336) " x="-3.0097752" y="47.2506828" width="29.9488125" height="1.08730706"></rect>
                        </g>
                        <g>
                            <mask id="mask-10" fill="white">
                                <use xlink:href="#path-9"></use>
                            </mask>
                            <g id="SVGID_137_"></g>
                            <rect id="Rectangle-path" fill="#BCB199" mask="url(#mask-10)" transform="translate(12.524888, 53.102356) rotate(180.676126) translate(-12.524888, -53.102356) " x="-2.44894167" y="52.5587023" width="29.9476593" height="1.08730706"></rect>
                        </g>
                        <g>
                            <mask id="mask-12" fill="white">
                                <use xlink:href="#path-11"></use>
                            </mask>
                            <g id="SVGID_137_"></g>
                            <rect id="Rectangle-path" fill="#BCB199" mask="url(#mask-12)" transform="translate(12.497547, 58.269423) rotate(180.676126) translate(-12.497547, -58.269423) " x="-2.47628286" y="57.725769" width="29.9476593" height="1.08730706"></rect>
                        </g>
                        <g>
                            <mask id="mask-14" fill="white">
                                <use xlink:href="#path-13"></use>
                            </mask>
                            <g id="SVGID_137_"></g>
                            <rect id="Rectangle-path" fill="#BCB199" mask="url(#mask-14)" transform="translate(12.293572, 63.251031) rotate(180.676126) translate(-12.293572, -63.251031) " x="-2.68083405" y="62.7073772" width="29.9488125" height="1.08730706"></rect>
                        </g>
                    </g>
                    <path d="M5.95210438,29.7779611 C4.62707912,27.6125152 3.93285354,25.0234453 4.12774411,22.2623864 C4.57518519,15.914952 9.79802189,10.7922181 16.1521465,10.4747887 C23.5303114,10.1065706 29.5696128,16.0246095 29.4692845,23.3000921 C29.4346886,25.7829674 28.6862626,28.0903908 27.4258165,30.0330589" id="Shape" fill="#E8E0CB"></path>
                    <g transform="translate(4.072391, 10.080022)" id="Clipped">
                        <g>
                            <mask id="mask-16" fill="white">
                                <use xlink:href="#path-15"></use>
                            </mask>
                            <g id="SVGID_139_"></g>
                            <rect id="Rectangle-path" fill="#BCB199" mask="url(#mask-16)" transform="translate(-5.183618, 25.321994) rotate(180.710502) translate(5.183618, -25.321994) " x="-5.72733903" y="19.6037796" width="1.08744119" height="11.4364295"></rect>
                        </g>
                        <g>
                            <mask id="mask-18" fill="white">
                                <use xlink:href="#path-17"></use>
                            </mask>
                            <g id="SVGID_139_"></g>
                        </g>
                        <g>
                            <mask id="mask-20" fill="white">
                                <use xlink:href="#path-19"></use>
                            </mask>
                            <g id="SVGID_139_"></g>
                            <rect id="Rectangle-path" fill="#BCB199" mask="url(#mask-20)" transform="translate(11.964631, 47.794336) rotate(180.676126) translate(-11.964631, -47.794336) " x="-3.0097752" y="47.2506828" width="29.9488125" height="1.08730706"></rect>
                        </g>
                        <g>
                            <mask id="mask-22" fill="white">
                                <use xlink:href="#path-21"></use>
                            </mask>
                            <g id="SVGID_139_"></g>
                            <rect id="Rectangle-path" fill="#BCB199" mask="url(#mask-22)" transform="translate(12.524888, 53.102356) rotate(180.676126) translate(-12.524888, -53.102356) " x="-2.44894167" y="52.5587023" width="29.9476593" height="1.08730706"></rect>
                        </g>
                        <g>
                            <mask id="mask-24" fill="white">
                                <use xlink:href="#path-23"></use>
                            </mask>
                            <g id="SVGID_139_"></g>
                            <rect id="Rectangle-path" fill="#BCB199" mask="url(#mask-24)" transform="translate(12.497547, 58.269423) rotate(180.676126) translate(-12.497547, -58.269423) " x="-2.47628286" y="57.725769" width="29.9476593" height="1.08730706"></rect>
                        </g>
                        <g>
                            <mask id="mask-26" fill="white">
                                <use xlink:href="#path-25"></use>
                            </mask>
                            <g id="SVGID_139_"></g>
                            <rect id="Rectangle-path" fill="#BCB199" mask="url(#mask-26)" transform="translate(12.293572, 63.251031) rotate(180.676126) translate(-12.293572, -63.251031) " x="-2.68083405" y="62.7073772" width="29.9488125" height="1.08730706"></rect>
                        </g>
                    </g>
                    <g transform="translate(1.000000, 28.548643)" id="pants">
                        <g>
                            <mask id="mask-28" fill="white">
                                <use xlink:href="#path-27"></use>
                            </mask>
                            <use id="Shape" fill="#E8E0CB" xlink:href="#path-27"></use>
                            <polygon id="Rectangle-path" fill="#BCB199" mask="url(#mask-28)" points="40.7498431 26.6841892 -7.00987912 26.889556 -7.01367615 26.006525 40.7460461 25.8011582"></polygon>
                            <polygon id="Rectangle-path" fill="#BCB199" mask="url(#mask-28)" points="40.400903 32.8268543 -7.35881927 33.0322211 -7.36261134 32.1503444 40.3971109 31.9449776"></polygon>
                            <polygon id="Rectangle-path" fill="#BCB199" mask="url(#mask-28)" points="40.3704495 38.8735916 -7.38927275 39.0741825 -7.39297663 38.1923058 40.3667456 37.991715"></polygon>
                        </g>
                    </g>
                    <g id="Clipped" transform="translate(4.072391, 10.080022)">
                        <mask id="mask-30" fill="white">
                            <use xlink:href="#path-29"></use>
                        </mask>
                        <g id="SVGID_143_"></g>
                        <path d="M14.2789057,5.39630036 C14.3757744,9.67178624 17.9160943,13.059624 22.1875421,12.9626637 C26.4589899,12.8657035 29.8436279,9.32319101 29.7467593,5.04770512 C29.6510438,0.772219238 26.1095707,-2.61561853 21.8381229,-2.51865826 C17.5666751,-2.42285229 14.182037,1.12081447 14.2789057,5.39630036" id="Shape" fill="#A6B4B9" mask="url(#mask-30)"></path>
                    </g>
                    <g id="Clipped" transform="translate(17.910774, 10.080022)">
                        <mask id="mask-32" fill="white">
                            <use xlink:href="#path-31"></use>
                        </mask>
                        <g id="SVGID_145_"></g>
                        <g id="Group-2" mask="url(#mask-32)" fill="#CDDCE6" opacity="0.3">
                            <g transform="translate(6.000000, 5.000000) scale(-1, 1) translate(-6.000000, -5.000000) translate(3.000000, 2.000000)" id="Oval-2">
                                <path d="M4.2543123,4.44804316 C3.36142764,5.19726235 2.16038848,5.23590406 1.57171626,4.53435182 C0.983044042,3.83279959 1.22965695,2.65671698 2.12254161,1.90749779 C3.01542627,1.15827859 4.21646543,1.11963689 4.80513765,1.82118913 C5.39380987,2.52274136 5.14719696,3.69882397 4.2543123,4.44804316 Z"></path>
                            </g>
                        </g>
                        <path d="M11.4335859,9.40154546 C12.5884643,9.79573288 12.7076457,10.8857394 11.7911299,12.671565 C3.0705612,17.0233343 1.1710127,9.48626226 0.216178714,8.72075933 C3.18462873,11.5160194 6.92376447,11.7429481 11.4335859,9.40154546 Z" id="Path-2" fill-opacity="0.22" fill="#3D545E" mask="url(#mask-32)"></path>
                    </g>
                    <g id="backpack" transform="translate(0.000000, 31.000000)">
                        <path d="M29.3032239,18.2981398 C29.3032239,18.2981398 23.77133,20.5028315 20.2563805,16.2873686 C16.741431,12.0742143 20.7234259,19.0299589 20.7234259,19.0299589 C20.7234259,19.0299589 23.7667172,22.0692014 29.4266162,20.1311505" id="Shape" fill="#ED8370"></path>
                        <mask id="mask-34" fill="white">
                            <use xlink:href="#path-33"></use>
                        </mask>
                        <use id="Shape" fill="#ED8370" xlink:href="#path-33"></use>
                        <path d="M0.58973064,18.958393 L11.4851515,18.6432721 C13.1861195,18.5936377 14.5388215,17.1611653 14.489234,15.4574349 C14.4396465,13.7548589 13.0073737,12.4031866 11.3064057,12.4516668 L0.410984848,12.7656333 L0.58973064,18.958393 L0.58973064,18.958393 Z" id="Shape" fill="#3D545E" mask="url(#mask-34)"></path>
                        <path d="M10.6675337,10.4535928 C10.6836785,11.0238115 11.1599495,11.4739841 11.7307828,11.4566698 C12.300463,11.4405097 12.7502104,10.9637884 12.7340657,10.3924155 C12.7167677,9.82219677 12.2416498,9.37202412 11.6708165,9.38818416 C11.0999832,9.40665278 10.6513889,9.88221979 10.6675337,10.4535928" id="Shape" fill="#D6CEB2" mask="url(#mask-34)"></path>
                        <path d="M7.14566498,10.5551702 C7.16180976,11.1265432 7.63808081,11.5755615 8.20891414,11.5594015 C8.77859428,11.5420871 9.22834175,11.0665201 9.21219697,10.4951472 C9.19489899,9.92492847 8.71978114,9.47360153 8.14894781,9.49091587 C7.57811448,9.5082302 7.128367,9.9837972 7.14566498,10.5551702" id="Shape" fill="#D6CEB2" mask="url(#mask-34)"></path>
                        <path d="M12.2727862,17.3850973 L12.2727862,17.3850973 C12.637197,17.3747087 12.9266498,17.0688221 12.916271,16.7029126 L12.8470791,14.3100718 C12.8367003,13.9464708 12.5299495,13.6567443 12.1655387,13.6659786 C11.8011279,13.6752129 11.5116751,13.9834081 11.5220539,14.3481633 L11.5912458,16.7410041 C11.6016246,17.1057594 11.9083754,17.3954859 12.2727862,17.3850973" id="Shape" fill="#9EAFB2" mask="url(#mask-34)"></path>
                        <path d="M9.41170034,17.4682061 L9.41170034,17.4682061 C9.77611111,17.4566632 10.065564,17.1507767 10.0551852,16.7860214 L9.98599327,14.3931806 C9.97561448,14.0284253 9.66886364,13.7386988 9.30445286,13.7479331 C8.94004209,13.759476 8.65058923,14.0653626 8.66096801,14.4312721 L8.73015993,16.8229586 C8.74053872,17.1888682 9.04728956,17.4785947 9.41170034,17.4682061" id="Shape" fill="#9EAFB2" mask="url(#mask-34)"></path>
                        <path d="M6.55176768,17.5513149 L6.55176768,17.5513149 C6.91617845,17.5409263 7.20563131,17.2350397 7.19525253,16.8691302 L7.12606061,14.4762894 C7.11568182,14.1126884 6.80893098,13.8229619 6.4445202,13.8321962 C6.08010943,13.8425848 5.79065657,14.1484714 5.80103535,14.5143809 L5.87022727,16.9072217 C5.88060606,17.2708227 6.1873569,17.5605492 6.55176768,17.5513149" id="Shape" fill="#9EAFB2" mask="url(#mask-34)"></path>
                        <path d="M3.69068182,17.6332694 L3.69068182,17.6332694 C4.05509259,17.6228808 4.34454545,17.3169942 4.33416667,16.9510847 L4.26497475,14.5593982 C4.25459596,14.1946429 3.94784512,13.9049164 3.58343434,13.9141507 C3.21902357,13.923385 2.92957071,14.2315802 2.93994949,14.5963354 L3.00914141,16.9891762 C3.0195202,17.3550858 3.32742424,17.6448123 3.69068182,17.6332694" id="Shape" fill="#9EAFB2" mask="url(#mask-34)"></path>
                        <path d="M2.20074916,11.3354694 L5.48505892,11.2408178 C5.85408249,11.2281206 6.14699495,10.9187712 6.13661616,10.5482445 C6.12623737,10.1800263 5.81602694,9.88683694 5.44585017,9.89722554 L2.1615404,9.99187723 C1.79251684,10.0022658 1.49960438,10.3127695 1.50998316,10.6832962 C1.52266835,11.0526687 1.83287879,11.345858 2.20074916,11.3354694" id="Shape" fill="#7D9199" mask="url(#mask-34)"></path>
                        <polygon id="Rectangle-path" fill="#3D545E" mask="url(#mask-34)" points="13.3937622 7.89339307 -0.579720236 8.29738831 -0.792983989 0.920971468 13.1804985 0.516976227"></polygon>
                    </g>
                </g>
            </g>
        </g>
    </g>
</svg>