<?xml version="1.0" encoding="UTF-8"?>
<svg width="50px" height="85px" viewBox="0 0 50 85" version="1.1" xmlns="http://www.w3.org/2000/svg" xmlns:xlink="http://www.w3.org/1999/xlink">
    <!-- Generator: Sketch 49.1 (51147) - http://www.bohemiancoding.com/sketch -->
    <title>Spaceman Left 2</title>
    <desc>Created with Sketch.</desc>
    <defs>
        <path d="M0.326252825,10.9482091 L7.85503923,12.0598885 C8.52963308,12.1605296 9.18371563,11.9789129 9.69991667,11.6029547 C10.1933274,12.1478049 10.8645027,12.5330174 11.6370949,12.6475401 L14.5656527,13.087122 C15.5262652,13.2317213 16.4515527,12.9309547 17.1455184,12.3433031 C17.6138597,13.1044739 18.3932891,13.6620488 19.3311113,13.8031777 L21.6249583,14.1467456 C23.31828,14.4023972 24.9044871,13.2039582 25.1517622,11.4849617 L25.8126819,6.88439024 C26.059957,5.16655052 24.8759992,3.5528223 23.183817,3.29717073 L20.8888305,2.95244599 C19.9521478,2.81247387 19.0485111,3.11902439 18.3853125,3.70898955 C17.8862042,2.94203484 17.0839845,2.38214634 16.1245115,2.23754704 L13.1959537,1.79796516 C12.4507098,1.68691289 11.7271168,1.84308014 11.1151963,2.19243206 C10.7254816,1.6441115 10.1295144,1.2484878 9.42301412,1.14206272 L4.85013387,0.454926829" id="path-1"></path>
        <path d="M11.9364368,0.395623693 C5.65770009,0.712585366 0.49796877,5.84643902 0.0546967985,12.2088084 C-0.137881513,14.9758606 0.549247018,17.5705505 1.85741212,19.7406969 L23.0774909,19.9963484 C24.3218431,18.0506202 25.0613894,15.7381882 25.0955749,13.2487666 C25.1924338,6.17496864 19.5757563,0.378271777 12.5802637,0.379428571 C12.367174,0.379428571 12.1518054,0.385212544 11.9364368,0.395623693" id="path-3"></path>
        <path d="M11.9364368,0.395623693 C5.65770009,0.712585366 0.49796877,5.84643902 0.0546967985,12.2088084 C-0.137881513,14.9758606 0.549247018,17.5705505 1.85741212,19.7406969 L23.0774909,19.9963484 C24.3218431,18.0506202 25.0613894,15.7381882 25.0955749,13.2487666 C25.1924338,6.17496864 19.5757563,0.378271777 12.5802637,0.379428571 C12.367174,0.379428571 12.1518054,0.385212544 11.9364368,0.395623693" id="path-5"></path>
        <path d="M11.9364368,0.395623693 C5.65770009,0.712585366 0.49796877,5.84643902 0.0546967985,12.2088084 C-0.137881513,14.9758606 0.549247018,17.5705505 1.85741212,19.7406969 L23.0774909,19.9963484 C24.3218431,18.0506202 25.0613894,15.7381882 25.0955749,13.2487666 C25.1924338,6.17496864 19.5757563,0.378271777 12.5802637,0.379428571 C12.367174,0.379428571 12.1518054,0.385212544 11.9364368,0.395623693" id="path-7"></path>
        <path d="M11.9364368,0.395623693 C5.65770009,0.712585366 0.49796877,5.84643902 0.0546967985,12.2088084 C-0.137881513,14.9758606 0.549247018,17.5705505 1.85741212,19.7406969 L23.0774909,19.9963484 C24.3218431,18.0506202 25.0613894,15.7381882 25.0955749,13.2487666 C25.1924338,6.17496864 19.5757563,0.378271777 12.5802637,0.379428571 C12.367174,0.379428571 12.1518054,0.385212544 11.9364368,0.395623693" id="path-9"></path>
        <path d="M11.9364368,0.395623693 C5.65770009,0.712585366 0.49796877,5.84643902 0.0546967985,12.2088084 C-0.137881513,14.9758606 0.549247018,17.5705505 1.85741212,19.7406969 L23.0774909,19.9963484 C24.3218431,18.0506202 25.0613894,15.7381882 25.0955749,13.2487666 C25.1924338,6.17496864 19.5757563,0.378271777 12.5802637,0.379428571 C12.367174,0.379428571 12.1518054,0.385212544 11.9364368,0.395623693" id="path-11"></path>
        <path d="M11.9364368,0.395623693 C5.65770009,0.712585366 0.49796877,5.84643902 0.0546967985,12.2088084 C-0.137881513,14.9758606 0.549247018,17.5705505 1.85741212,19.7406969 L23.0774909,19.9963484 C24.3218431,18.0506202 25.0613894,15.7381882 25.0955749,13.2487666 C25.1924338,6.17496864 19.5757563,0.378271777 12.5802637,0.379428571 C12.367174,0.379428571 12.1518054,0.385212544 11.9364368,0.395623693" id="path-13"></path>
        <path d="M11.9364368,0.395623693 C5.65770009,0.712585366 0.49796877,5.84643902 0.0546967985,12.2088084 C-0.137881513,14.9758606 0.549247018,17.5705505 1.85741212,19.7406969 L23.0774909,19.9963484 C24.3218431,18.0506202 25.0613894,15.7381882 25.0955749,13.2487666 C25.1924338,6.17496864 19.5757563,0.378271777 12.5802637,0.379428571 C12.367174,0.379428571 12.1518054,0.385212544 11.9364368,0.395623693" id="path-15"></path>
        <path d="M11.9364368,0.395623693 C5.65770009,0.712585366 0.49796877,5.84643902 0.0546967985,12.2088084 C-0.137881513,14.9758606 0.549247018,17.5705505 1.85741212,19.7406969 L23.0774909,19.9963484 C24.3218431,18.0506202 25.0613894,15.7381882 25.0955749,13.2487666 C25.1924338,6.17496864 19.5757563,0.378271777 12.5802637,0.379428571 C12.367174,0.379428571 12.1518054,0.385212544 11.9364368,0.395623693" id="path-17"></path>
        <path d="M11.9364368,0.395623693 C5.65770009,0.712585366 0.49796877,5.84643902 0.0546967985,12.2088084 C-0.137881513,14.9758606 0.549247018,17.5705505 1.85741212,19.7406969 L23.0774909,19.9963484 C24.3218431,18.0506202 25.0613894,15.7381882 25.0955749,13.2487666 C25.1924338,6.17496864 19.5757563,0.378271777 12.5802637,0.379428571 C12.367174,0.379428571 12.1518054,0.385212544 11.9364368,0.395623693" id="path-19"></path>
        <path d="M11.9364368,0.395623693 C5.65770009,0.712585366 0.49796877,5.84643902 0.0546967985,12.2088084 C-0.137881513,14.9758606 0.549247018,17.5705505 1.85741212,19.7406969 L23.0774909,19.9963484 C24.3218431,18.0506202 25.0613894,15.7381882 25.0955749,13.2487666 C25.1924338,6.17496864 19.5757563,0.378271777 12.5802637,0.379428571 C12.367174,0.379428571 12.1518054,0.385212544 11.9364368,0.395623693" id="path-21"></path>
        <path d="M11.9364368,0.395623693 C5.65770009,0.712585366 0.49796877,5.84643902 0.0546967985,12.2088084 C-0.137881513,14.9758606 0.549247018,17.5705505 1.85741212,19.7406969 L23.0774909,19.9963484 C24.3218431,18.0506202 25.0613894,15.7381882 25.0955749,13.2487666 C25.1924338,6.17496864 19.5757563,0.378271777 12.5802637,0.379428571 C12.367174,0.379428571 12.1518054,0.385212544 11.9364368,0.395623693" id="path-23"></path>
        <path d="M11.9364368,0.395623693 C5.65770009,0.712585366 0.49796877,5.84643902 0.0546967985,12.2088084 C-0.137881513,14.9758606 0.549247018,17.5705505 1.85741212,19.7406969 L23.0774909,19.9963484 C24.3218431,18.0506202 25.0613894,15.7381882 25.0955749,13.2487666 C25.1924338,6.17496864 19.5757563,0.378271777 12.5802637,0.379428571 C12.367174,0.379428571 12.1518054,0.385212544 11.9364368,0.395623693" id="path-25"></path>
        <path d="M4.89892578,3.60963066 L0.33749592,51.8363902 C0.183661174,53.6166969 1.47473352,55.1864669 3.22731011,55.3518885 L7.78993471,55.7810592 C9.35221202,55.9302857 10.7937006,54.9065226 11.1936709,53.3645157 L15.1569098,34.5932125 L18.9184542,53.7439443 C19.2751229,55.2940488 20.686984,56.3525157 22.2538194,56.2426202 L26.8266996,55.9221882 C28.5838343,55.8007247 29.9159292,54.2610314 29.8110937,52.4784111 L26.5680293,3.60963066 L12.7473145,0.509338592 L4.89892578,3.60963066 Z" id="path-27"></path>
        <path d="M8.58397881,14.4009338 C8.99534432,14.3974634 9.39873321,14.3592892 9.79186645,14.2921951 C10.0961174,13.2244739 10.2659054,12.0989129 10.2818586,10.9351777 C10.344532,6.36352613 8.0210576,2.32747038 4.48171893,0.0416445993 C2.28473085,1.42401394 0.83298666,3.90418118 0.861474576,6.71981882 C0.903636692,11.006899 4.36093016,14.444892 8.58397881,14.4009338 Z" id="path-29"></path>
        <path d="M3.40799765,22.6532822 L17.8376968,22.2298955 C19.3646491,22.1847805 20.5782343,20.8799164 20.5349327,19.3298118 L20.0848236,3.51990244 C20.0403825,1.96979791 18.7550077,0.737811847 17.2269159,0.781770035 L2.79721673,1.20515679 C1.27026444,1.25027178 0.0566792216,2.55513589 0.10112037,4.10639721 L0.551229441,19.9151498 C0.594531073,21.4664111 1.88104535,22.6983972 3.40799765,22.6532822" id="path-31"></path>
    </defs>
    <g id="Symbols" stroke="none" stroke-width="1" fill="none" fill-rule="evenodd">
        <g id="Illustration/Spaceman---Point-Down">
            <g id="Spaceman-Left-2">
                <ellipse id="shadow" fill="#F4F4F4" cx="18" cy="80.5" rx="18" ry="4.5"></ellipse>
                <g id="Group" transform="translate(2.000000, 0.000000)">
                    <g id="arm" transform="translate(22.000000, 30.000000)">
                        <mask id="mask-2" fill="white">
                            <use xlink:href="#path-1"></use>
                        </mask>
                        <use id="Shape" fill="#E8E0CB" xlink:href="#path-1"></use>
                        <polygon id="Rectangle-path" fill="#BCB199" mask="url(#mask-2)" points="10.966474 -0.0767667405 11.9215396 0.0545342917 10.122257 13.1422681 9.16719137 13.0109671"></polygon>
                        <polygon id="Rectangle-path" fill="#BCB199" mask="url(#mask-2)" points="18.315813 1.2589758 19.2708786 1.39027683 17.4715959 14.4780107 16.5165303 14.3467096"></polygon>
                    </g>
                    <polygon id="Rectangle-path" fill="#BCB199" points="5.43806167 2.90142413 12.4495189 14.3875638 11.453309 14.9956779 4.44185171 3.50953823"></polygon>
                    <path d="M5.83402856,30.1518467 C4.52472395,27.9817003 3.83873493,25.3870105 4.03131325,22.6199582 C4.4734457,16.2587456 9.63431654,11.124892 15.9130532,10.8067735 C23.2036806,10.4377561 29.1713293,16.3686411 29.0721913,23.6599164 C29.0380058,26.1481812 28.2984595,28.4606132 27.0529678,30.4074983" id="Shape" fill="#E8E0CB"></path>
                    <path d="M27.5680293,29.5294913 L30.8122332,78.3982718 C30.9170687,80.1820488 29.5838343,81.7194286 27.8266996,81.8443624 L23.2549589,82.1636376 C21.686984,82.2746899 20.2751229,81.216223 19.9173147,79.6649617 L16.1569098,60.51423 L12.1936709,79.2855331 C11.7937006,80.8275401 10.3533515,81.8513031 8.78993471,81.7032334 L4.22731011,81.2729059 C2.47473352,81.1063275 1.18366117,79.5377143 1.33749592,77.7585645 L5.83402856,30.1530035" id="Shape" fill="#E8E0CB"></path>
                    <g transform="translate(3.976616, 10.411150)" id="Clipped">
                        <g>
                            <mask id="mask-4" fill="white">
                                <use xlink:href="#path-3"></use>
                            </mask>
                            <g id="SVGID_153_"></g>
                            <rect id="Rectangle-path" fill="#BCB199" mask="url(#mask-4)" transform="translate(-5.121320, 25.380083) rotate(180.710502) translate(5.121320, -25.380083) " x="-5.65858989" y="19.6494563" width="1.07453935" height="11.4612542"></rect>
                        </g>
                        <g>
                            <mask id="mask-6" fill="white">
                                <use xlink:href="#path-5"></use>
                            </mask>
                            <g id="SVGID_153_"></g>
                        </g>
                        <g>
                            <mask id="mask-8" fill="white">
                                <use xlink:href="#path-7"></use>
                            </mask>
                            <g id="SVGID_153_"></g>
                            <rect id="Rectangle-path" fill="#BCB199" mask="url(#mask-8)" transform="translate(11.823589, 47.902941) rotate(180.676126) translate(-11.823589, -47.902941) " x="-2.97315439" y="47.3581069" width="29.5934876" height="1.08966725"></rect>
                        </g>
                        <g>
                            <mask id="mask-10" fill="white">
                                <use xlink:href="#path-9"></use>
                            </mask>
                            <g id="SVGID_153_"></g>
                            <rect id="Rectangle-path" fill="#BCB199" mask="url(#mask-10)" transform="translate(12.377085, 53.222482) rotate(180.676126) translate(-12.377085, -53.222482) " x="-2.41908877" y="52.6776484" width="29.5923481" height="1.08966725"></rect>
                        </g>
                        <g>
                            <mask id="mask-12" fill="white">
                                <use xlink:href="#path-11"></use>
                            </mask>
                            <g id="SVGID_153_"></g>
                            <rect id="Rectangle-path" fill="#BCB199" mask="url(#mask-12)" transform="translate(12.350068, 58.400765) rotate(180.676126) translate(-12.350068, -58.400765) " x="-2.44610557" y="57.8559311" width="29.5923481" height="1.08966725"></rect>
                        </g>
                        <g>
                            <mask id="mask-14" fill="white">
                                <use xlink:href="#path-13"></use>
                            </mask>
                            <g id="SVGID_153_"></g>
                            <rect id="Rectangle-path" fill="#BCB199" mask="url(#mask-14)" transform="translate(12.148514, 63.393186) rotate(180.676126) translate(-12.148514, -63.393186) " x="-2.64822988" y="62.8483527" width="29.5934876" height="1.08966725"></rect>
                        </g>
                    </g>
                    <path d="M3.66780744,5.312 C4.95887979,5.9355122 6.50292483,5.37793728 7.11598478,4.0672892 C7.73018424,2.75664111 7.18093723,1.18918467 5.89100439,0.566829268 C4.59993205,-0.0566829268 3.05588701,0.500891986 2.44168754,1.81154007 C1.82862759,3.12103136 2.37673509,4.6884878 3.66780744,5.312" id="Shape" fill="#F99D78"></path>
                    <path d="M5.83402856,30.1518467 C4.52472395,27.9817003 3.83873493,25.3870105 4.03131325,22.6199582 C4.4734457,16.2587456 9.63431654,11.124892 15.9130532,10.8067735 C23.2036806,10.4377561 29.1713293,16.3686411 29.0721913,23.6599164 C29.0380058,26.1481812 28.2984595,28.4606132 27.0529678,30.4074983" id="Shape" fill="#E8E0CB"></path>
                    <g transform="translate(3.976616, 10.411150)" id="Clipped">
                        <g>
                            <mask id="mask-16" fill="white">
                                <use xlink:href="#path-15"></use>
                            </mask>
                            <g id="SVGID_155_"></g>
                            <rect id="Rectangle-path" fill="#BCB199" mask="url(#mask-16)" transform="translate(-5.121320, 25.380083) rotate(180.710502) translate(5.121320, -25.380083) " x="-5.65858989" y="19.6494563" width="1.07453935" height="11.4612542"></rect>
                        </g>
                        <g>
                            <mask id="mask-18" fill="white">
                                <use xlink:href="#path-17"></use>
                            </mask>
                            <g id="SVGID_155_"></g>
                        </g>
                        <g>
                            <mask id="mask-20" fill="white">
                                <use xlink:href="#path-19"></use>
                            </mask>
                            <g id="SVGID_155_"></g>
                            <rect id="Rectangle-path" fill="#BCB199" mask="url(#mask-20)" transform="translate(11.823589, 47.902941) rotate(180.676126) translate(-11.823589, -47.902941) " x="-2.97315439" y="47.3581069" width="29.5934876" height="1.08966725"></rect>
                        </g>
                        <g>
                            <mask id="mask-22" fill="white">
                                <use xlink:href="#path-21"></use>
                            </mask>
                            <g id="SVGID_155_"></g>
                            <rect id="Rectangle-path" fill="#BCB199" mask="url(#mask-22)" transform="translate(12.377085, 53.222482) rotate(180.676126) translate(-12.377085, -53.222482) " x="-2.41908877" y="52.6776484" width="29.5923481" height="1.08966725"></rect>
                        </g>
                        <g>
                            <mask id="mask-24" fill="white">
                                <use xlink:href="#path-23"></use>
                            </mask>
                            <g id="SVGID_155_"></g>
                            <rect id="Rectangle-path" fill="#BCB199" mask="url(#mask-24)" transform="translate(12.350068, 58.400765) rotate(180.676126) translate(-12.350068, -58.400765) " x="-2.44610557" y="57.8559311" width="29.5923481" height="1.08966725"></rect>
                        </g>
                        <g>
                            <mask id="mask-26" fill="white">
                                <use xlink:href="#path-25"></use>
                            </mask>
                            <g id="SVGID_155_"></g>
                            <rect id="Rectangle-path" fill="#BCB199" mask="url(#mask-26)" transform="translate(12.148514, 63.393186) rotate(180.676126) translate(-12.148514, -63.393186) " x="-2.64822988" y="62.8483527" width="29.5934876" height="1.08966725"></rect>
                        </g>
                    </g>
                    <g transform="translate(1.000000, 25.919861)" id="Clipped">
                        <g>
                            <mask id="mask-28" fill="white">
                                <use xlink:href="#path-27"></use>
                            </mask>
                            <g id="SVGID_157_"></g>
                            <polygon id="Rectangle-path" fill="#BCB199" mask="url(#mask-28)" points="39.8329805 41.9554479 -7.36010096 42.1536588 -7.36381288 41.2698679 39.8292686 41.0716569"></polygon>
                            <polygon id="Rectangle-path" fill="#BCB199" mask="url(#mask-28)" points="40.2052526 29.7459822 -6.98782886 29.9489124 -6.99163413 29.0639647 40.2014473 28.8610344"></polygon>
                            <polygon id="Rectangle-path" fill="#BCB199" mask="url(#mask-28)" points="39.8603385 35.9018653 -7.33274299 36.1047956 -7.3365433 35.2210046 39.8565382 35.0180744"></polygon>
                        </g>
                    </g>
                    <g id="shield" transform="translate(18.790333, 12.724739)">
                        <mask id="mask-30" fill="white">
                            <use xlink:href="#path-29"></use>
                        </mask>
                        <use id="SVGID_161_" fill="#A6B4B9" xlink:href="#path-29"></use>
                        <path d="M12.1168834,10.7568287 C13.2717618,11.1510161 13.3909431,12.2410226 12.4744274,14.0268482 C3.75385868,18.3786176 1.85431018,10.8415455 0.899476194,10.0760426 C3.86792621,12.8713026 7.60706195,13.0982313 12.1168834,10.7568287 Z" id="Path-2" fill-opacity="0.22" fill="#3D545E" mask="url(#mask-30)"></path>
                        <ellipse id="Oval-2" fill="#CDDCE6" opacity="0.3" mask="url(#mask-30)" transform="translate(5.860127, 5.533054) rotate(60.000000) translate(-5.860127, -5.533054) " cx="5.86012691" cy="5.53305372" rx="2.11046593" ry="1.65822323"></ellipse>
                    </g>
                    <g id="backpack" transform="translate(0.000000, 31.000000)">
                        <path d="M28.9081009,18.7143972 C28.9081009,18.7143972 23.4418396,20.9238746 19.9685929,16.6992613 C16.4953462,12.4769617 20.4300971,19.4478049 20.4300971,19.4478049 C20.4300971,19.4478049 23.4372815,22.4936446 29.0300292,20.5513868" id="Shape" fill="#ED8370"></path>
                        <mask id="mask-32" fill="white">
                            <use xlink:href="#path-31"></use>
                        </mask>
                        <use id="Shape" fill="#ED8370" xlink:href="#path-31"></use>
                        <path d="M0.535276208,19.3760836 L11.3014294,19.0602787 C12.9822164,19.0105366 14.3188694,17.5737979 14.2698702,15.8675261 C14.220871,14.1612544 12.8055913,12.8066481 11.1248043,12.8552334 L0.35865113,13.1698815 L0.535276208,19.3760836 L0.535276208,19.3760836 Z" id="Shape" fill="#3D545E" mask="url(#mask-32)"></path>
                        <path d="M10.4935121,10.8528223 C10.5094653,11.4242787 10.9800857,11.8754286 11.5441464,11.8580767 C12.1070676,11.8418815 12.5514791,11.3641254 12.5355259,10.7915122 C12.5184331,10.2200557 12.0489523,9.76890592 11.4848916,9.78510105 C10.9208308,9.80360976 10.4775589,10.2802091 10.4935121,10.8528223" id="Shape" fill="#D6CEB2" mask="url(#mask-32)"></path>
                        <path d="M7.01342828,10.9546202 C7.02938151,11.5272334 7.50000188,11.9772265 8.06406262,11.9610314 C8.62698384,11.9436794 9.07139532,11.4659233 9.05544209,10.8944669 C9.03834934,10.3230105 8.56886849,9.87070383 8.00480775,9.88805575 C7.44074702,9.90540767 6.99633553,10.382007 7.01342828,10.9546202" id="Shape" fill="#D6CEB2" mask="url(#mask-32)"></path>
                        <path d="M12.0797192,17.7993728 L12.0797192,17.7993728 C12.4398065,17.7889617 12.7258252,17.4824111 12.7155695,17.1157073 L12.6471985,14.7176725 C12.6369429,14.3532822 12.3338315,14.0629268 11.9737442,14.0721812 C11.6136569,14.0814355 11.3276383,14.3902997 11.3378939,14.7558467 L11.4062649,17.1538815 C11.4165206,17.5194286 11.719632,17.809784 12.0797192,17.7993728" id="Shape" fill="#9EAFB2" mask="url(#mask-32)"></path>
                        <path d="M9.25257847,17.882662 L9.25257847,17.882662 C9.61266573,17.8710941 9.8986844,17.5645436 9.88842875,17.1989965 L9.82005775,14.8009617 C9.8098021,14.4354146 9.50669068,14.1450592 9.14660342,14.1543136 C8.78651616,14.1658815 8.50049749,14.4724321 8.51075314,14.8391359 L8.57912414,17.2360139 C8.58937979,17.6027178 8.89249121,17.8930732 9.25257847,17.882662" id="Shape" fill="#9EAFB2" mask="url(#mask-32)"></path>
                        <path d="M6.42657721,17.9659512 L6.42657721,17.9659512 C6.78666447,17.9555401 7.07268315,17.6489895 7.0624275,17.2822857 L6.9940565,14.8842509 C6.98380085,14.5198606 6.68068942,14.2295052 6.32060217,14.2387596 C5.96051491,14.2491707 5.67449623,14.5557213 5.68475188,14.9224251 L5.75312288,17.3204599 C5.76337853,17.6848502 6.06648996,17.9752056 6.42657721,17.9659512" id="Shape" fill="#9EAFB2" mask="url(#mask-32)"></path>
                        <path d="M3.59943644,18.0480836 L3.59943644,18.0480836 C3.9595237,18.0376725 4.24554237,17.731122 4.23528672,17.3644181 L4.16691573,14.9675401 C4.15666008,14.601993 3.85354865,14.3116376 3.49346139,14.320892 C3.13337414,14.3301463 2.84735546,14.6390105 2.85761111,15.0045575 L2.92598211,17.4025923 C2.93623776,17.7692962 3.2404887,18.0596516 3.59943644,18.0480836" id="Shape" fill="#9EAFB2" mask="url(#mask-32)"></path>
                        <path d="M2.12718095,11.7366132 L5.37252433,11.6417561 C5.73716965,11.6290314 6.02660687,11.3190105 6.01635122,10.9476794 C6.00609557,10.578662 5.6995656,10.2848362 5.33378076,10.2952474 L2.08843738,10.3901045 C1.72379206,10.4005157 1.43435483,10.7116934 1.44461048,11.0830244 C1.45714517,11.4531986 1.76367514,11.7470244 2.12718095,11.7366132" id="Shape" fill="#7D9199" mask="url(#mask-32)"></path>
                        <polygon id="Rectangle-path" fill="#3D545E" mask="url(#mask-32)" points="13.1882084 8.28723969 -0.61948695 8.68644176 -0.833213627 1.29401316 12.9744817 0.894811083"></polygon>
                    </g>
                </g>
            </g>
        </g>
    </g>
</svg>