<svg xmlns="http://www.w3.org/2000/svg" xmlns:xlink="http://www.w3.org/1999/xlink" width="150" height="38" viewBox="0 0 150 38">
    <defs>
        <path id="a" d="M0 .481h36.492v36.976H0z"/>
    </defs>
    <g fill="none" fill-rule="evenodd">
        <g transform="translate(0 .062)">
            <mask id="b" fill="#fff">
                <use xlink:href="#a"/>
            </mask>
            <path fill="#000" d="M30.41.48H6.082C2.738.48 0 3.255 0 6.645v24.652c0 3.388 2.738 6.161 6.083 6.161h24.326c3.345 0 6.083-2.773 6.083-6.161V6.644c0-3.39-2.738-6.163-6.083-6.163zm-.553 28.296c0 1.077-.871 1.957-1.935 1.957H8.568c-1.063 0-1.934-.88-1.934-1.957V9.165c0-1.078.87-1.96 1.934-1.96h19.354c1.064 0 1.935.882 1.935 1.96v19.611zm-6.634-5.886c0 .619-.497 1.121-1.104 1.121h-7.74a1.114 1.114 0 0 1-1.105-1.12v-7.843c0-.616.496-1.12 1.105-1.12h7.74c.607 0 1.104.504 1.104 1.12v7.842z" mask="url(#b)"/>
        </g>
        <path fill="#000" d="M53.38 31.173c-2.163 0-4.243-.845-5.708-2.328-1.308-1.322-2.032-3.04-2.032-4.837h2.191c0 1.204.492 2.364 1.389 3.269 1.056 1.065 2.574 1.678 4.162 1.678h.019c3.057 0 5.541-2.167 5.541-4.83-.001-1.999-1.092-3.584-6.398-4.829-2.159-.506-3.615-1.184-4.585-2.131-1.031-1.014-1.536-2.363-1.536-4.123 0-3.477 3.076-6.308 6.858-6.308 1.812 0 3.52.632 4.812 1.78C59.425 9.7 60.16 11.3 60.16 13.016h-2.192c0-2.241-2.102-4.062-4.688-4.062-2.532 0-4.669 1.872-4.669 4.088 0 2.025.687 3.215 4.428 4.093 3.995.935 8.084 2.5 8.095 6.988 0 1.91-.818 3.696-2.302 5.028-1.454 1.305-3.383 2.022-5.43 2.022h-.022zM79.183 37.486v-9.72h-.062c-1.421 2.207-3.87 3.341-6.445 3.341-4.96 0-8.897-3.775-8.897-8.832 0-5.03 4.029-8.77 8.897-8.77 2.575 0 5.024 1.135 6.445 3.373h.062v-2.945h2.119v23.553h-2.12zm-6.507-22.049c-3.935 0-6.775 2.973-6.775 6.93 0 3.926 2.902 6.808 6.775 6.808 3.755 0 6.629-3.099 6.629-6.84 0-3.741-2.874-6.898-6.63-6.898zM118.207 30.707v-2.942h-.061c-1.454 2.205-3.874 3.34-6.447 3.34-4.96 0-8.896-3.771-8.896-8.83 0-5.03 4.024-8.772 8.896-8.772 2.604 0 5.025 1.106 6.447 3.374h.061v-2.943h2.116v16.773h-2.116zm-6.508-15.27c-3.93 0-6.775 2.973-6.775 6.93 0 3.924 2.904 6.809 6.775 6.809 3.753 0 6.627-3.1 6.627-6.842 0-3.74-2.874-6.897-6.627-6.897zM126.672 20.895v9.814h-2.121V13.933h2.12v2.422h.057c.91-2.146 2.514-2.699 4.662-2.852v2.272c-2.904.244-4.718 2.114-4.718 5.12M149.495 23.104h-15.07c.153 3.31 3.181 6.071 6.42 6.071 2.54 0 5.023-1.473 5.93-3.957h2.237c-1.207 3.495-4.475 5.886-8.139 5.886-4.78 0-8.623-3.954-8.623-8.77 0-4.782 3.843-8.831 8.594-8.831 4.844 0 8.687 4.141 8.687 8.988 0 .211-.036.396-.036.613m-8.622-7.668c-3.3 0-5.932 2.453-6.447 5.734h12.923c-.545-3.281-3.146-5.734-6.476-5.734M97.74 30.73v-2.622h-.06c-.974 2.067-3.133 3.022-5.323 3.022-2.16 0-4.348-.77-5.717-2.525-1.184-1.51-1.458-3.545-1.458-5.423v-9.306h2.128v9.274c0 3.482 1.245 6.04 5.047 6.04 1.397 0 2.492-.372 3.527-1.357 1.461-1.415 1.732-3.082 1.732-5.052v-8.905h2.13V30.73H97.74z"/>
    </g>
</svg>
