<svg xmlns="http://www.w3.org/2000/svg" xmlns:xlink="http://www.w3.org/1999/xlink" width="65" height="65" viewBox="0 0 65 65">
    <defs>
        <circle id="a" cx="29.5" cy="29.5" r="29.5"/>
        <path id="b" d="M.038.101h21.537V7.5H.038z"/>
        <path id="d" d="M0 .095h37.756v27.854H0z"/>
    </defs>
    <g fill="none" fill-rule="evenodd">
        <g transform="translate(3 3)">
            <use fill="#1C272B" xlink:href="#a"/>
            <circle cx="29.5" cy="29.5" r="30.75" stroke="#FFF" stroke-width="2.5"/>
        </g>
        <g transform="translate(21.875 42.405)">
            <mask id="c" fill="#fff">
                <use xlink:href="#b"/>
            </mask>
            <path fill="#4F485C" d="M17.118 4.878h-.927V.101H5.421v4.777h-.926A5.067 5.067 0 0 0 .266 7.154L.038 7.5h21.537l-.229-.346a5.067 5.067 0 0 0-4.228-2.276" mask="url(#c)"/>
        </g>
        <g transform="translate(13.5 15.53)">
            <mask id="e" fill="#fff">
                <use xlink:href="#d"/>
            </mask>
            <path fill="#7D728E" d="M34.878 22.148h-32V3.344h31.997v4.33h.003v14.474zm2.875-17.194V2.967c0-1.586-1.3-2.872-2.906-2.872H2.907C1.3.095 0 1.38 0 2.967v22.11c0 1.587 1.301 2.872 2.906 2.872H34.85c1.605 0 2.906-1.285 2.906-2.871V4.953h-.003z" mask="url(#e)"/>
        </g>
        <path fill="#494756" d="M16.137 38.369h32.996V18.523H16.137z"/>
        <path fill="#FFF2D9" d="M33.072 40.517a.744.744 0 1 1-1.488 0 .744.744 0 0 1 1.488 0"/>
        <path fill="#F97E53" d="M19.46 34.657h1.32v-6.612h-1.32zM21.796 34.657h1.32V29.49h-1.32zM24.183 34.657h1.32v-3.722h-1.32zM26.57 34.657h1.32v-2.615h-1.32zM28.957 34.657h1.32V32.59h-1.32z"/>
        <path fill="#CEC3AA" d="M19.46 36.195H30.53v-.572H19.46zM39.728 24.76a.375.375 0 0 1-.374.375h-3.821a.375.375 0 0 1-.376-.374v-4.122c0-.206.168-.374.376-.374h3.82c.207 0 .375.168.375.374v4.122z"/>
        <path fill="#7B7A87" d="M44.647 24.76a.375.375 0 0 1-.374.375H40.45a.374.374 0 0 1-.375-.374v-4.122c0-.206.168-.374.375-.374h3.822c.206 0 .374.168.374.374v4.122zM39.728 30.07a.375.375 0 0 1-.374.375h-3.821a.375.375 0 0 1-.376-.374v-4.122c0-.206.168-.375.376-.375h3.82c.207 0 .375.169.375.375v4.122z"/>
        <path fill="#CEC3AA" d="M44.647 30.07a.375.375 0 0 1-.374.375H40.45a.374.374 0 0 1-.375-.374v-4.122c0-.206.168-.375.375-.375h3.822c.206 0 .374.169.374.375v4.122zM25.57 27.496l-2.003-5.508-1.64 3.476h-2.374a.39.39 0 0 1 0-.78h1.88l2.228-4.724 2.02 5.554 1.675-3.388 1.69 2.557h1.376a.39.39 0 0 1 0 .781h-1.796l-1.173-1.774-1.882 3.806z"/>
        <path fill="#7D9199" d="M34.395 32.958h11.072v-.573H34.395zM34.395 34.417h11.072v-.572H34.395zM34.395 35.877h11.072v-.573H34.395z"/>
    </g>
</svg>
