<svg xmlns="http://www.w3.org/2000/svg" width="100" height="100" viewBox="0 0 100 100">
    <g fill="none" fill-rule="evenodd">
        <circle cx="50" cy="50" r="50" fill="#ff6c37"/>
        <rect width="52" height="52" x="24" y="24" fill="#FFF" stroke="#1C272B" stroke-linecap="round" stroke-linejoin="round" stroke-width="3" rx="2"/>
        <path fill="#F66839" d="M48.392 54.636a1.26 1.26 0 0 1 1.226.305l10.773 10.404a4.164 4.164 0 0 0 5.886-.105 4.168 4.168 0 0 0-.105-5.883L55.282 48.84a1.26 1.26 0 0 1-.361-1.161c.447-2.208.093-4.628-.975-6.635a9.022 9.022 0 0 0-1.932-2.485c-2.562-2.289-6.498-2.985-9.799-1.741l4.249 4.079a3.935 3.935 0 0 1 1.203 2.784 3.923 3.923 0 0 1-1.116 2.82 3.974 3.974 0 0 1-5.594.103l-4.402-4.222c-.815 2.502-.492 5.41 1.01 7.942 1.521 2.574 3.978 4.283 6.737 4.69a8.9 8.9 0 0 0 4.061-.37l.03-.008zm14.713 8.411a1.308 1.308 0 0 1-1.243-.3 1.274 1.274 0 0 1-.012-1.782c.46-.5 1.302-.505 1.777-.039a1.268 1.268 0 0 1-.522 2.121"/>
        <path fill="#F99D78" d="M38.198 33.316l3.58 3.682-1.448 4.734-5.027 1.051-3.58-3.682 1.448-4.734 5.027-1.051zm-1.842 6.024a1.35 1.35 0 1 0 .79-2.582 1.35 1.35 0 0 0-.79 2.582z"/>
    </g>
</svg>
