<svg xmlns="http://www.w3.org/2000/svg" width="157" height="61" viewBox="0 0 157 61">
    <g fill="none" fill-rule="evenodd">
        <path fill="#303073" d="M89.84 1.181a4.003 4.003 0 0 0-2.93-1.18H55.98v3.72a3.74 3.74 0 0 0 1.18 2.77 4.046 4.046 0 0 0 3 1.21h9.11v40.19h4.43a4 4 0 0 0 2.93-1.18 3.867 3.867 0 0 0 1.21-2.8v-36.2h13.25v-3.72a3.872 3.872 0 0 0-1.25-2.81"/>
        <path fill="#303073" d="M113.23 15.161a4.001 4.001 0 0 0-2.93 1.18 3.864 3.864 0 0 0-1.21 2.8v15.58c-1.43 4-4.39 5.87-9 5.87-3.85 0-5.72-1.78-5.72-5.43v-16a3.871 3.871 0 0 0-1.21-2.8 4 4 0 0 0-2.93-1.18h-4.14v20.71c0 8.18 4.42 12.33 13.14 12.33 4.29 0 7.6-1.479 9.86-4.41a11.682 11.682 0 0 1-1.69 5.95c-1.33 1.93-3.7 2.91-7 2.91a28.304 28.304 0 0 1-9.88-1.89 6.713 6.713 0 0 0-1.54-.21 2.562 2.562 0 0 0-2.85 2.82v3.28l.24.15a26.926 26.926 0 0 0 14 3.49c11.33 0 17.07-6.13 17.07-18.23v-26.92h-4.21zM151.72 33.621a5.51 5.51 0 0 0-2.16-2.84 12.991 12.991 0 0 0 1.54-3.43l4.5-12.18h-4.62c-2.53 0-4.15 1-4.82 3l-3.38 9c-.26.67-1.06 1-2.37 1h-7V3.991a3.858 3.858 0 0 0-1.21-2.8 3.995 3.995 0 0 0-2.93-1.18h-4.14v48.88h4.14a3.994 3.994 0 0 0 3-1.2 3.736 3.736 0 0 0 1.18-2.78v-10.02h8.95c1.27 0 1.61.58 1.75 1l3.45 10.12c.63 1.9 2.24 2.86 4.76 2.86h4.6l-5.24-15.25z"/>
        <path fill="#6BDBBB" d="M47.39 22.1C46.295 9.993 36.227.668 24.07.5H0v24.65c.483 12.407 10.443 22.346 22.85 22.802h24.61V22.17l-.07-.07z"/>
    </g>
</svg>
